<svg xmlns="http://www.w3.org/2000/svg" fill="red" viewBox="0 0 960 540" width="960" height="540" version="1.1">
	<symbol id="logo">
		<polygon points="50,0 100,24 100,76 50,100 0,76 0,24" style="fill:#D8C46D;" />
		<polygon points="50,0 100,24 100,76 50,100 0,76 0,24" transform="scale(0.7) translate(21 21)" style="stroke:white;fill:none;stroke-width:3;" />
		<g transform="scale(0.04) translate(750 700)" fill="black">
			<path d="M313.176,635.217L141.641,801.722v71.558h655.262v-71.558L625.368,635.217H313.176z M758.903,835.279H179.641v-17.484
				l148.945-144.578h281.37l148.945,144.577v17.485H758.903z"/>
			<path d="M73.835,938.543h790.873V767.438l-269.32-258.153c-0.557-0.521-0.887-1.286-0.887-2.078l0.096-219.991l34.066,0.083
				l0.084-144.493h-128.01c-5.582-31.908-33.468-56.244-66.95-56.244s-61.369,24.336-66.949,56.244h-56.863l0.066,144.674
				l34.002-0.119v219.846c0,0.792-0.329,1.557-0.907,2.098L73.835,767.438V938.543z M433.788,119.562
				c15.174,0,28.115,9.712,32.952,23.244h-65.903C405.671,129.275,418.614,119.562,433.788,119.562z M108.975,782.785l270.208-259.358
				V257.589l-34.373,0.057l0.15-79.701h243.656l-0.068,78.872l-29.01,0.027c-0.027,7.513-0.057,31.663-0.086,72.045l-0.002,2.621
				h-94.3v35.139h94.279l-0.025,45.632h-94.254v35.139h94.239l-0.018,45.632h-94.221v35.14h99.18l265.238,254.594v120.619H108.975
				V782.785z"/>
			<path d="M327.263,67.985C327.263,30.498,296.765,0,259.278,0c-37.486,0-67.984,30.498-67.984,67.985s30.498,67.985,67.984,67.985
				C296.765,135.97,327.263,105.472,327.263,67.985z M224.293,67.985c0-19.291,15.694-34.985,34.984-34.985
				c19.291,0,34.985,15.694,34.985,34.985s-15.694,34.985-34.985,34.985C239.988,102.97,224.293,87.276,224.293,67.985z"/>
		</g>
	</symbol>
	<symbol id="back">
		<rect width="960" height="540" fill="#2B2B2B"/>
		<polygon points="0,0 100,0 100,20 20,20 20,520 100,520 100,540 0,540" style="fill:#616161;" />
		<polygon points="960,0 860,0 860,20 940,20 940,520 860,520 860,540 960,540" style="fill:#616161;" />
		<use id="logo_0" href="#logo" x="1750" y="920" transform="scale(0.5)" />
	</symbol>
	<symbol id="lewis_essig">
		<defs>
			<clipPath id="Clip0">
				<path d="M0 0 L161 0 L161 102 L0 102 L0 0 Z" />
			</clipPath>
		</defs>
		<g clip-path="url(#Clip0)">
			<path style="fill:white; fill-rule:evenodd;stroke:none;" d="M14.7305 5.7109 C14.0352 1.875 11.8282 0 7.9883 0 C5.6368 0 3.7422 0.746 2.4454 2.1835 C0.8633 3.914 0 6.4101 0 9.2382 C0 12.1171 0.8868 14.5898 2.543 16.2929 C3.8868 17.6835 5.6133 18.332 7.8946 18.332 C12.1641 18.332 14.5625 16.0312 15.0899 11.3984 L12.7891 11.3984 C12.5977 12.5976 12.3555 13.414 11.9961 14.1093 C11.2774 15.5507 9.7891 16.3671 7.918 16.3671 C4.4375 16.3671 2.2305 13.582 2.2305 9.2148 C2.2305 4.7304 4.3438 1.9687 7.7266 1.9687 C9.1407 1.9687 10.461 2.4023 11.1797 3.0742 C11.8282 3.6718 12.1875 4.4179 12.4532 5.7109 L14.7305 5.7109 Z" transform="translate(42.9023, 42.0186)" />
			<path style="fill:white; fill-rule:evenodd;stroke:none;" d="M14.7305 5.7109 C14.0352 1.875 11.8282 0 7.9883 0 C5.6368 0 3.7422 0.746 2.4454 2.1835 C0.8633 3.914 0 6.4101 0 9.2382 C0 12.1171 0.8868 14.5898 2.543 16.2929 C3.8868 17.6835 5.6133 18.332 7.8946 18.332 C12.1641 18.332 14.5625 16.0312 15.0899 11.3984 L12.7891 11.3984 C12.5977 12.5976 12.3555 13.414 11.9961 14.1093 C11.2774 15.5507 9.7891 16.3671 7.918 16.3671 C4.4375 16.3671 2.2305 13.582 2.2305 9.2148 C2.2305 4.7304 4.3438 1.9687 7.7266 1.9687 C9.1407 1.9687 10.461 2.4023 11.1797 3.0742 C11.8282 3.6718 12.1875 4.4179 12.4532 5.7109 L14.7305 5.7109 Z" transform="translate(82.6025, 42.0186)" />
			<path style="fill:white; fill-rule:nonzero;stroke:none;" d="M19.9492 0 L19.9492 1.7002 L0 1.7002 L0 0 L19.9492 0 Z" transform="translate(60.4004, 50.2002)" />
			<path style="fill:white; fill-rule:evenodd;stroke:none;" d="M11.2266 9.5274 L11.2266 17.4922 L13.4609 17.4922 L13.4609 0 L11.2266 0 L11.2266 7.5586 L2.23047 7.5586 L2.23047 0 L0 0 L0 17.4922 L2.2539 17.4922 L2.2539 9.5274 L11.2266 9.5274 Z" transform="translate(4.0918, 42.2578)" />
			<path style="fill:white; fill-rule:nonzero;stroke:none;" d="M0 1.7998 L0 0.0996 L21 0 L21 1.7002 L0 1.7998 Z" transform="translate(19.7002, 50.2002)" />
			<path style="fill:white; fill-rule:evenodd;stroke:none;" d="M11.2266 9.5274 L11.2266 17.4922 L13.4609 17.4922 L13.4609 0 L11.2266 0 L11.2266 7.5586 L2.2305 7.5586 L2.2305 0 L0 0 L0 17.4922 L2.2539 17.4922 L2.2539 9.5274 L11.2266 9.5274 Z" transform="translate(43.7422, 81.8076)" />
			<path style="fill:white; fill-rule:nonzero;stroke:none;" d="M1.7002 17.5498 L0 17.5498 L0 0 L1.7002 0 L1.7002 17.5498 Z" transform="translate(49.5498, 62.2998)" />
			<path style="fill:white; fill-rule:evenodd;stroke:none;" d="M11.2266 9.52739 L11.2266 17.4922 L13.4609 17.4922 L13.4609 0 L11.2266 0 L11.2266 7.55859 L2.2305 7.55859 L2.2305 0 L0 0 L0 17.4922 L2.2539 17.4922 L2.2539 9.52739 L11.2266 9.52739 Z" transform="translate(43.792, 2.45801)" />
			<path style="fill:white; fill-rule:nonzero;stroke:none;" d="M0 0 L1.7002 0 L1.7002 17.7998 L0 17.7998 L0 0 Z" transform="translate(49.5498, 22.2002)" />
			<path style="fill:white; fill-rule:evenodd;stroke:none;" d="M8.422 0 C3.41 0 0 3.69535 0 9.16795 C0 14.6368 3.41 18.3321 8.449 18.3321 C10.559 18.3321 12.453 17.6836 13.871 16.4844 C15.766 14.8789 16.895 12.168 16.895 9.31245 C16.895 3.67185 13.559 0 8.422 0 Z M8.422 1.96875 C12.215 1.96875 14.66 4.84765 14.66 9.26175 C14.66 13.4883 12.141 16.3672 8.449 16.3672 C4.727 16.3672 2.235 13.4883 2.235 9.16795 C2.235 4.84765 4.727 1.96875 8.422 1.96875 Z" transform="translate(101.41, 7.66895)" />
			<path style="fill:white; fill-rule:nonzero;stroke:none;" d="M8.5498 0 L9.9998 0.8506 L1.4502 15.6504 L0 14.8008 L8.5498 0 Z" transform="translate(93.4502, 25.0996)" />
			<path style="fill:white; fill-rule:nonzero;stroke:none;" d="M8.5502 0 L10.0002 0.8496 L1.5 15.6494 L0 14.7998 L8.5502 0 Z" transform="translate(96.5498, 26.9004)" />
			<path style="fill:white; fill-rule:evenodd;stroke:none;" d="M8.422 0 C3.41 0 0 3.6954 0 9.168 C0 14.6368 3.41 18.3321 8.449 18.3321 C10.559 18.3321 12.453 17.6836 13.871 16.4844 C15.766 14.8789 16.895 12.168 16.895 9.3125 C16.895 3.6719 13.559 0 8.422 0 Z M8.422 1.9688 C12.215 1.9688 14.66 4.8477 14.66 9.2618 C14.66 13.4883 12.141 16.3672 8.449 16.3672 C4.727 16.3672 2.235 13.4883 2.235 9.168 C2.235 4.8477 4.727 1.9688 8.422 1.9688 Z" transform="translate(101.41, 76.3691)" />
			<path style="fill:white; fill-rule:nonzero;stroke:none;" d="M10.0004 14.75 L8.5004 15.6006 L0 0.8506 L1.5 0 L10.0004 14.75 Z" transform="translate(95.0996, 60.5996)" />
			<path style="fill:white; fill-rule:evenodd;stroke:none;" d="M11.227 9.5274 L11.227 17.4922 L13.461 17.4922 L13.461 0 L11.227 0 L11.227 7.5586 L2.231 7.5586 L2.231 0 L0 0 L0 17.4922 L2.254 17.4922 L2.254 9.5274 L11.227 9.5274 Z" transform="translate(142.942, 76.5078)" />
			<path style="fill:white; fill-rule:nonzero;stroke:none;" d="M20.15 0 L20.15 1.7002 L0 1.7002 L0 0 L20.15 0 Z" transform="translate(120.45, 84.5498)" />
			<path style="fill:white; fill-rule:nonzero;stroke:none;" d="M12.5496 0 L13.1996 1.60059 L0.6496 6.6504 L0 5.04981 L12.5496 0 Z" transform="translate(99.4004, 2.2998)" />
			<path style="fill:white; fill-rule:nonzero;stroke:none;" d="M0 0.39941 L1.65 0 L4.65 13.2002 L3 13.5996 L0 0.39941 Z" transform="translate(119, 7.4502)" />
			<path style="fill:white; fill-rule:nonzero;stroke:none;" d="M13.6 0.2998 L13.55 2 L0 1.7002 L0.05 0 L13.6 0.2998 Z" transform="translate(102.95, 96.5)" />
			<path style="fill:white; fill-rule:nonzero;stroke:none;" d="M2.4492 13.5 L0.75 13.5508 L0 0.0508 L1.6992 0 L2.4492 13.5 Z" transform="translate(96.1504, 79.8496)" />
		</g>
	</symbol>
	<symbol id="lewis_essig_dimer">
		<defs>
			<clipPath id="clip1">
				<path d="M 0 120 L 357.5 120 L 357.5 0 L 0 0 L 0 120 Z M 0 120 " />
			</clipPath>
		</defs>
		<g clip-path="url(#clip1)" clip-rule="nonzero">
			<path style=" stroke:none;fill-rule:nonzero;fill:white;fill-opacity:1;" d="M 5.324219 73.4375 L 5.324219 51.953125 L 8.175781 51.953125 L 8.175781 60.78125 L 19.328125 60.78125 L 19.328125 51.953125 L 22.179688 51.953125 L 22.179688 73.4375 L 19.328125 73.4375 L 19.328125 63.320312 L 8.175781 63.320312 L 8.175781 73.4375 L 5.324219 73.4375 Z M 5.324219 73.4375 " />
			<path style=" stroke:none;fill-rule:nonzero;fill:white;fill-opacity:1;" d="M 25.585938 75.539062 L 27.578125 75.285156 C 27.796875 76.40625 28.183594 77.210938 28.730469 77.707031 C 29.277344 78.203125 29.941406 78.449219 30.722656 78.449219 C 31.660156 78.449219 32.445312 78.128906 33.085938 77.492188 C 33.722656 76.839844 34.042969 76.039062 34.042969 75.089844 C 34.042969 74.179688 33.742188 73.429688 33.144531 72.84375 C 32.558594 72.246094 31.808594 71.945312 30.898438 71.945312 C 30.519531 71.945312 30.050781 72.023438 29.492188 72.179688 L 29.707031 70.441406 C 29.835938 70.453125 29.945312 70.460938 30.039062 70.460938 C 30.871094 70.460938 31.625 70.238281 32.304688 69.796875 C 32.980469 69.355469 33.320312 68.675781 33.320312 67.765625 C 33.320312 67.035156 33.070312 66.4375 32.578125 65.96875 C 32.082031 65.488281 31.449219 65.246094 30.683594 65.246094 C 29.914062 65.246094 29.269531 65.488281 28.75 65.96875 C 28.242188 66.449219 27.914062 67.179688 27.773438 68.15625 L 25.800781 67.804688 C 26.035156 66.476562 26.582031 65.449219 27.441406 64.71875 C 28.300781 63.988281 29.367188 63.625 30.644531 63.625 C 31.515625 63.625 32.324219 63.8125 33.066406 64.191406 C 33.808594 64.570312 34.375 65.082031 34.765625 65.734375 C 35.15625 66.386719 35.351562 67.074219 35.351562 67.804688 C 35.351562 68.507812 35.160156 69.144531 34.785156 69.71875 C 34.417969 70.277344 33.867188 70.726562 33.125 71.066406 C 34.074219 71.289062 34.808594 71.75 35.332031 72.453125 C 35.863281 73.144531 36.132812 74.003906 36.132812 75.03125 C 36.132812 76.4375 35.617188 77.636719 34.589844 78.625 C 33.574219 79.601562 32.285156 80.089844 30.722656 80.089844 C 29.300781 80.089844 28.125 79.667969 27.1875 78.820312 C 26.261719 77.972656 25.726562 76.878906 25.585938 75.539062 Z M 25.585938 75.539062 " />
			<path style=" stroke:none;fill-rule:nonzero;fill:white;fill-opacity:1;" d="M 54.863281 65.898438 L 57.714844 66.621094 C 57.113281 68.953125 56.039062 70.738281 54.492188 71.972656 C 52.9375 73.199219 51.042969 73.808594 48.808594 73.808594 C 46.503906 73.808594 44.617188 73.339844 43.164062 72.402344 C 41.71875 71.453125 40.613281 70.085938 39.863281 68.300781 C 39.105469 66.503906 38.730469 64.585938 38.730469 62.539062 C 38.730469 60.304688 39.148438 58.351562 40 56.679688 C 40.859375 55.015625 42.074219 53.75 43.652344 52.890625 C 45.222656 52.03125 46.960938 51.601562 48.867188 51.601562 C 51.015625 51.601562 52.816406 52.148438 54.277344 53.242188 C 55.746094 54.335938 56.765625 55.875 57.34375 57.851562 L 54.550781 58.515625 C 54.042969 56.953125 53.308594 55.816406 52.363281 55.097656 C 51.425781 54.382812 50.238281 54.023438 48.808594 54.023438 C 47.152344 54.023438 45.769531 54.421875 44.667969 55.214844 C 43.558594 56.011719 42.777344 57.070312 42.324219 58.398438 C 41.878906 59.726562 41.660156 61.101562 41.660156 62.519531 C 41.660156 64.34375 41.917969 65.9375 42.441406 67.304688 C 42.972656 68.671875 43.796875 69.695312 44.921875 70.371094 C 46.054688 71.035156 47.269531 71.367188 48.574219 71.367188 C 50.175781 71.367188 51.523438 70.914062 52.617188 70 C 53.71875 69.078125 54.472656 67.710938 54.863281 65.898438 Z M 54.863281 65.898438 " />
			<path style=" stroke:none;fill-rule:nonzero;fill:white;fill-opacity:1;" d="M 98.375 61.4375 L 97.125 63.5625 L 60.375 63.5625 L 60.375 61.4375 L 98.375 61.4375 Z M 98.375 61.4375 " />
			<path style=" stroke:none;fill-rule:nonzero;fill:white;fill-opacity:1;" d="M 112.320312 20.03125 C 112.320312 16.476562 113.277344 13.695312 115.191406 11.671875 C 117.105469 9.65625 119.578125 8.644531 122.613281 8.644531 C 124.589844 8.644531 126.375 9.125 127.964844 10.070312 C 129.566406 11.007812 130.78125 12.332031 131.617188 14.035156 C 132.445312 15.730469 132.867188 17.648438 132.867188 19.796875 C 132.867188 21.976562 132.421875 23.917969 131.539062 25.636719 C 130.664062 27.355469 129.421875 28.660156 127.808594 29.542969 C 126.191406 30.429688 124.453125 30.871094 122.59375 30.871094 C 120.570312 30.871094 118.765625 30.382812 117.164062 29.40625 C 115.570312 28.429688 114.371094 27.097656 113.550781 25.402344 C 112.730469 23.710938 112.320312 21.921875 112.320312 20.03125 Z M 115.25 20.089844 C 115.25 22.667969 115.945312 24.710938 117.339844 26.203125 C 118.730469 27.6875 120.476562 28.429688 122.574219 28.429688 C 124.722656 28.429688 126.484375 27.683594 127.867188 26.183594 C 129.242188 24.675781 129.9375 22.539062 129.9375 19.777344 C 129.9375 18.035156 129.632812 16.511719 129.039062 15.207031 C 128.453125 13.894531 127.585938 12.878906 126.441406 12.160156 C 125.308594 11.445312 124.039062 11.085938 122.632812 11.085938 C 120.609375 11.085938 118.875 11.78125 117.417969 13.15625 C 115.972656 14.539062 115.25 16.847656 115.25 20.089844 Z M 115.25 20.089844 " />
			<path style=" stroke:none;fill-rule:nonzero;fill:white;fill-opacity:1;" d="M 111.375 29.3125 L 113.1875 30.375 L 94.375 63.0625 L 92.5 61.9375 L 111.375 29.3125 Z M 111.375 29.3125 " />
			<path style=" stroke:none;fill-rule:nonzero;fill:white;fill-opacity:1;" d="M 117.8125 33.0625 L 119.625 34.125 L 100.8125 66.75 L 98.9375 65.6875 L 117.8125 33.0625 Z M 117.8125 33.0625 " />
			<path style=" stroke:none;fill-rule:nonzero;fill:white;fill-opacity:1;" d="M 112.320312 105.90625 C 112.320312 102.351562 113.277344 99.570312 115.191406 97.546875 C 117.105469 95.53125 119.578125 94.519531 122.613281 94.519531 C 124.589844 94.519531 126.375 95 127.964844 95.945312 C 129.566406 96.882812 130.78125 98.207031 131.617188 99.910156 C 132.445312 101.605469 132.867188 103.523438 132.867188 105.671875 C 132.867188 107.851562 132.421875 109.792969 131.539062 111.511719 C 130.664062 113.230469 129.421875 114.535156 127.808594 115.417969 C 126.191406 116.304688 124.453125 116.746094 122.59375 116.746094 C 120.570312 116.746094 118.765625 116.257812 117.164062 115.28125 C 115.570312 114.304688 114.371094 112.972656 113.550781 111.277344 C 112.730469 109.585938 112.320312 107.796875 112.320312 105.90625 Z M 115.25 105.964844 C 115.25 108.542969 115.945312 110.585938 117.339844 112.078125 C 118.730469 113.5625 120.476562 114.304688 122.574219 114.304688 C 124.722656 114.304688 126.484375 113.558594 127.867188 112.058594 C 129.242188 110.550781 129.9375 108.414062 129.9375 105.652344 C 129.9375 103.910156 129.632812 102.386719 129.039062 101.082031 C 128.453125 99.769531 127.585938 98.753906 126.441406 98.035156 C 125.308594 97.320312 124.039062 96.960938 122.632812 96.960938 C 120.609375 96.960938 118.875 97.65625 117.417969 99.03125 C 115.972656 100.414062 115.25 102.722656 115.25 105.964844 Z M 115.25 105.964844 " />
			<path style=" stroke:none;fill-rule:nonzero;fill:white;fill-opacity:1;" d="M 116.5625 93 L 114.75 94.0625 L 97.125 63.5625 L 98.375 61.4375 L 116.5625 93 Z M 116.5625 93 " />
			<path style=" stroke:none;fill-rule:nonzero;fill:white;fill-opacity:1;" d="M 163.714844 116.1875 L 163.714844 94.703125 L 166.566406 94.703125 L 166.566406 103.53125 L 177.71875 103.53125 L 177.71875 94.703125 L 180.570312 94.703125 L 180.570312 116.1875 L 177.71875 116.1875 L 177.71875 106.070312 L 166.566406 106.070312 L 166.566406 116.1875 L 163.714844 116.1875 Z M 163.714844 116.1875 " />
			<path style=" stroke:none;fill-rule:nonzero;fill:white;fill-opacity:1;" d="M 135.625 106.5 L 160.8125 106.5 L 160.8125 104.375 L 135.625 104.375 L 135.625 106.5 Z M 135.625 106.5 " />
			<path style=" stroke:none;fill-rule:nonzero;fill:white;fill-opacity:1;" d="M 316.449219 64.648438 L 319.300781 65.371094 C 318.699219 67.703125 317.625 69.488281 316.078125 70.722656 C 314.523438 71.949219 312.632812 72.558594 310.394531 72.558594 C 308.089844 72.558594 306.203125 72.089844 304.75 71.152344 C 303.304688 70.203125 302.203125 68.835938 301.449219 67.050781 C 300.691406 65.253906 300.316406 63.335938 300.316406 61.289062 C 300.316406 59.054688 300.734375 57.101562 301.585938 55.429688 C 302.445312 53.765625 303.660156 52.5 305.238281 51.640625 C 306.8125 50.78125 308.546875 50.351562 310.453125 50.351562 C 312.601562 50.351562 314.402344 50.898438 315.863281 51.992188 C 317.332031 53.085938 318.351562 54.625 318.929688 56.601562 L 316.136719 57.265625 C 315.628906 55.703125 314.898438 54.566406 313.949219 53.847656 C 313.011719 53.132812 311.824219 52.773438 310.394531 52.773438 C 308.738281 52.773438 307.359375 53.171875 306.253906 53.964844 C 305.144531 54.761719 304.363281 55.820312 303.910156 57.148438 C 303.464844 58.476562 303.246094 59.851562 303.246094 61.269531 C 303.246094 63.09375 303.503906 64.6875 304.027344 66.054688 C 304.558594 67.421875 305.382812 68.445312 306.507812 69.121094 C 307.640625 69.785156 308.855469 70.117188 310.160156 70.117188 C 311.761719 70.117188 313.109375 69.664062 314.203125 68.75 C 315.304688 67.828125 316.058594 66.460938 316.449219 64.648438 Z M 316.449219 64.648438 " />
			<path style=" stroke:none;fill-rule:nonzero;fill:white;fill-opacity:1;" d="M 322.878906 72.1875 L 322.878906 50.703125 L 325.730469 50.703125 L 325.730469 59.53125 L 336.882812 59.53125 L 336.882812 50.703125 L 339.734375 50.703125 L 339.734375 72.1875 L 336.882812 72.1875 L 336.882812 62.070312 L 325.730469 62.070312 L 325.730469 72.1875 L 322.878906 72.1875 Z M 322.878906 72.1875 " />
			<path style=" stroke:none;fill-rule:nonzero;fill:white;fill-opacity:1;" d="M 343.144531 74.289062 L 345.136719 74.035156 C 345.355469 75.15625 345.742188 75.960938 346.289062 76.457031 C 346.835938 76.953125 347.5 77.199219 348.28125 77.199219 C 349.21875 77.199219 350.003906 76.878906 350.644531 76.242188 C 351.277344 75.589844 351.601562 74.789062 351.601562 73.839844 C 351.601562 72.929688 351.296875 72.179688 350.703125 71.59375 C 350.117188 70.996094 349.363281 70.695312 348.457031 70.695312 C 348.074219 70.695312 347.605469 70.773438 347.050781 70.929688 L 347.265625 69.191406 C 347.390625 69.203125 347.503906 69.210938 347.597656 69.210938 C 348.425781 69.210938 349.183594 68.988281 349.863281 68.546875 C 350.535156 68.105469 350.878906 67.425781 350.878906 66.515625 C 350.878906 65.785156 350.628906 65.1875 350.136719 64.71875 C 349.636719 64.238281 349.007812 63.996094 348.242188 63.996094 C 347.46875 63.996094 346.824219 64.238281 346.308594 64.71875 C 345.800781 65.199219 345.472656 65.929688 345.332031 66.90625 L 343.359375 66.554688 C 343.59375 65.226562 344.140625 64.199219 345 63.46875 C 345.859375 62.738281 346.921875 62.375 348.203125 62.375 C 349.070312 62.375 349.882812 62.5625 350.625 62.941406 C 351.367188 63.320312 351.933594 63.832031 352.324219 64.484375 C 352.714844 65.136719 352.910156 65.824219 352.910156 66.554688 C 352.910156 67.257812 352.71875 67.894531 352.34375 68.46875 C 351.976562 69.027344 351.425781 69.476562 350.683594 69.816406 C 351.628906 70.039062 352.367188 70.5 352.890625 71.203125 C 353.421875 71.894531 353.691406 72.753906 353.691406 73.78125 C 353.691406 75.1875 353.171875 76.386719 352.148438 77.375 C 351.132812 78.351562 349.84375 78.839844 348.28125 78.839844 C 346.859375 78.839844 345.683594 78.417969 344.746094 77.570312 C 343.816406 76.722656 343.285156 75.628906 343.144531 74.289062 Z M 343.144531 74.289062 " />
			<path style=" stroke:none;fill-rule:nonzero;fill:white;fill-opacity:1;" d="M 259.5625 62.3125 L 260.8125 60.1875 L 297.4375 60.1875 L 297.4375 62.3125 L 259.5625 62.3125 Z M 259.5625 62.3125 " />
			<path style=" stroke:none;fill-rule:nonzero;fill:white;fill-opacity:1;" d="M 225.195312 104.65625 C 225.195312 101.101562 226.152344 98.320312 228.066406 96.296875 C 229.980469 94.28125 232.453125 93.269531 235.488281 93.269531 C 237.464844 93.269531 239.25 93.75 240.839844 94.695312 C 242.441406 95.632812 243.65625 96.957031 244.492188 98.660156 C 245.320312 100.355469 245.742188 102.273438 245.742188 104.421875 C 245.742188 106.601562 245.296875 108.542969 244.414062 110.261719 C 243.539062 111.980469 242.296875 113.285156 240.683594 114.167969 C 239.066406 115.054688 237.328125 115.496094 235.46875 115.496094 C 233.445312 115.496094 231.640625 115.007812 230.039062 114.03125 C 228.445312 113.054688 227.246094 111.722656 226.425781 110.027344 C 225.605469 108.335938 225.195312 106.546875 225.195312 104.65625 Z M 228.125 104.714844 C 228.125 107.292969 228.820312 109.335938 230.214844 110.828125 C 231.605469 112.3125 233.351562 113.054688 235.449219 113.054688 C 237.597656 113.054688 239.359375 112.308594 240.742188 110.808594 C 242.117188 109.300781 242.8125 107.164062 242.8125 104.402344 C 242.8125 102.660156 242.507812 101.136719 241.914062 99.832031 C 241.328125 98.519531 240.460938 97.503906 239.316406 96.785156 C 238.183594 96.070312 236.914062 95.710938 235.507812 95.710938 C 233.484375 95.710938 231.75 96.40625 230.292969 97.78125 C 228.847656 99.164062 228.125 101.472656 228.125 104.714844 Z M 228.125 104.714844 " />
			<path style=" stroke:none;fill-rule:nonzero;fill:white;fill-opacity:1;" d="M 246.4375 94.6875 L 244.5625 93.625 L 263.5625 60.6875 L 265.4375 61.8125 L 246.4375 94.6875 Z M 246.4375 94.6875 " />
			<path style=" stroke:none;fill-rule:nonzero;fill:white;fill-opacity:1;" d="M 240 90.9375 L 238.125 89.875 L 257.125 57 L 258.9375 58.0625 L 240 90.9375 Z M 240 90.9375 " />
			<path style=" stroke:none;fill-rule:nonzero;fill:white;fill-opacity:1;" d="M 225.195312 18.78125 C 225.195312 15.226562 226.152344 12.445312 228.066406 10.421875 C 229.980469 8.40625 232.453125 7.394531 235.488281 7.394531 C 237.464844 7.394531 239.25 7.875 240.839844 8.820312 C 242.441406 9.757812 243.65625 11.082031 244.492188 12.785156 C 245.320312 14.480469 245.742188 16.398438 245.742188 18.546875 C 245.742188 20.726562 245.296875 22.667969 244.414062 24.386719 C 243.539062 26.105469 242.296875 27.410156 240.683594 28.292969 C 239.066406 29.179688 237.328125 29.621094 235.46875 29.621094 C 233.445312 29.621094 231.640625 29.132812 230.039062 28.15625 C 228.445312 27.179688 227.246094 25.847656 226.425781 24.152344 C 225.605469 22.460938 225.195312 20.671875 225.195312 18.78125 Z M 228.125 18.839844 C 228.125 21.417969 228.820312 23.460938 230.214844 24.953125 C 231.605469 26.4375 233.351562 27.179688 235.449219 27.179688 C 237.597656 27.179688 239.359375 26.433594 240.742188 24.933594 C 242.117188 23.425781 242.8125 21.289062 242.8125 18.527344 C 242.8125 16.785156 242.507812 15.261719 241.914062 13.957031 C 241.328125 12.644531 240.460938 11.628906 239.316406 10.910156 C 238.183594 10.195312 236.914062 9.835938 235.507812 9.835938 C 233.484375 9.835938 231.75 10.53125 230.292969 11.90625 C 228.847656 13.289062 228.125 15.597656 228.125 18.839844 Z M 228.125 18.839844 " />
			<path style=" stroke:none;fill-rule:nonzero;fill:white;fill-opacity:1;" d="M 241.5625 31.0625 L 243.375 30 L 260.8125 60.1875 L 259.5625 62.3125 L 241.5625 31.0625 Z M 241.5625 31.0625 " />
			<path style=" stroke:none;fill-rule:nonzero;fill:white;fill-opacity:1;" d="M 177.339844 29.0625 L 177.339844 7.578125 L 180.191406 7.578125 L 180.191406 16.40625 L 191.34375 16.40625 L 191.34375 7.578125 L 194.195312 7.578125 L 194.195312 29.0625 L 191.34375 29.0625 L 191.34375 18.945312 L 180.191406 18.945312 L 180.191406 29.0625 L 177.339844 29.0625 Z M 177.339844 29.0625 " />
			<path style=" stroke:none;fill-rule:nonzero;fill:white;fill-opacity:1;" d="M 196.9375 19.375 L 222.3125 19.375 L 222.3125 17.25 L 196.9375 17.25 L 196.9375 19.375 Z M 196.9375 19.375 " />
			<path style=" stroke:none;fill-rule:nonzero;fill-opacity:1;" class="bindu" d="M 168.0625 21.3125 L 172.125 21.3125 L 172.125 17.75 L 168.0625 17.75 L 168.0625 21.3125 Z M 168.0625 21.3125 " />
			<path style=" stroke:none;fill-rule:nonzero;fill-opacity:1;" class="bindu" d="M 160 21.3125 L 164.0625 21.3125 L 164.0625 17.75 L 160 17.75 L 160 21.3125 Z M 160 21.3125 " />
			<path style=" stroke:none;fill-rule:nonzero;fill-opacity:1;" class="bindu" d="M 151.875 21.3125 L 155.9375 21.3125 L 155.9375 17.75 L 151.875 17.75 L 151.875 21.3125 Z M 151.875 21.3125 " />
			<path style=" stroke:none;fill-rule:nonzero;fill-opacity:1;" class="bindu" d="M 143.75 21.3125 L 147.8125 21.3125 L 147.8125 17.75 L 143.75 17.75 L 143.75 21.3125 Z M 143.75 21.3125 " />
			<path style=" stroke:none;fill-rule:nonzero;fill-opacity:1;" class="bindu" d="M 135.625 21.3125 L 139.6875 21.3125 L 139.6875 17.75 L 135.625 17.75 L 135.625 21.3125 Z M 135.625 21.3125 " />
			<path style=" stroke:none;fill-rule:nonzero;fill-opacity:1;" class="bindu" d="M 222.3125 102.4375 L 222.375 106 L 218.0625 106.125 L 217.9375 102.5625 L 222.3125 102.4375 Z M 222.3125 102.4375 " />
			<path style=" stroke:none;fill-rule:nonzero;fill-opacity:1;" class="bindu" d="M 213.625 102.6875 L 213.75 106.25 L 209.375 106.375 L 209.25 102.875 L 213.625 102.6875 Z M 213.625 102.6875 " />
			<path style=" stroke:none;fill-rule:nonzero;fill-opacity:1;" class="bindu" d="M 204.9375 103 L 205.0625 106.5625 L 200.6875 106.6875 L 200.625 103.125 L 204.9375 103 Z M 204.9375 103 " />
			<path style=" stroke:none;fill-rule:nonzero;fill-opacity:1;" class="bindu" d="M 196.25 103.25 L 196.375 106.8125 L 192.0625 106.9375 L 191.9375 103.4375 L 196.25 103.25 Z M 196.25 103.25 " />
			<path style=" stroke:none;fill-rule:nonzero;fill-opacity:1;" class="bindu" d="M 187.625 103.5625 L 187.6875 107.0625 L 183.375 107.25 L 183.25 103.6875 L 187.625 103.5625 Z M 187.625 103.5625 " />
		</g>
	</symbol>
	<symbol id="lewis_propanol">
		<path fill="white" d="M44.65,22.182V5.002h2.273v7.055h8.93V5.002h2.273v17.18h-2.273v-8.098h-8.93v8.098H44.65z" />
		<path fill="white"  d="M56.635,55.861l2.273,0.574c-0.477,1.867-1.334,3.291-2.572,4.271s-2.752,1.471-4.541,1.471
	c-1.852,0-3.357-0.377-4.518-1.131s-2.043-1.846-2.648-3.275s-0.908-2.965-0.908-4.605c0-1.789,0.342-3.35,1.025-4.682
	s1.656-2.344,2.918-3.035s2.65-1.037,4.166-1.037c1.719,0,3.164,0.438,4.336,1.313s1.988,2.105,2.449,3.691l-2.238,0.527
	c-0.398-1.25-0.977-2.16-1.734-2.73s-1.711-0.855-2.859-0.855c-1.32,0-2.424,0.316-3.311,0.949s-1.51,1.482-1.869,2.549
	s-0.539,2.166-0.539,3.299c0,1.461,0.213,2.736,0.639,3.826s1.088,1.904,1.986,2.443s1.871,0.809,2.918,0.809
	c1.273,0,2.352-0.367,3.234-1.102S56.322,57.307,56.635,55.861z" />
		<rect fill="white"  x="50.48" y="24.49" width="1.7" height="17.65" />
		<path fill="white"  d="M44.65,101.588v-17.18h2.273v7.055h8.93v-7.055h2.273v17.18h-2.273V93.49h-8.93v8.098H44.65z" />
		<rect fill="white"  x="50.48" y="64.439" width="1.7" height="17.7" />
		<path fill="white" d="M96.291,55.861l2.273,0.574c-0.477,1.867-1.334,3.291-2.572,4.271s-2.752,1.471-4.541,1.471
	c-1.852,0-3.357-0.377-4.518-1.131s-2.043-1.846-2.648-3.275s-0.908-2.965-0.908-4.605c0-1.789,0.342-3.35,1.025-4.682
	s1.656-2.344,2.918-3.035s2.65-1.037,4.166-1.037c1.719,0,3.164,0.438,4.336,1.313s1.988,2.105,2.449,3.691l-2.238,0.527
	c-0.398-1.25-0.977-2.16-1.734-2.73s-1.711-0.855-2.859-0.855c-1.32,0-2.424,0.316-3.311,0.949s-1.51,1.482-1.869,2.549
	s-0.539,2.166-0.539,3.299c0,1.461,0.213,2.736,0.639,3.826s1.088,1.904,1.986,2.443s1.871,0.809,2.918,0.809
	c1.273,0,2.352-0.367,3.234-1.102S95.979,57.307,96.291,55.861z" />
		<rect fill="white" x="61.13" y="51.59" width="19.95" height="1.7" />
		<path fill="white" d="M5.002,61.885v-17.18h2.273v7.055h8.93v-7.055h2.273v17.18h-2.273v-8.098h-8.93v8.098H5.002z" />
		<rect fill="white" x="20.68" y="51.59" width="20.8" height="1.7" />
		<path fill="white" d="M135.986,55.861l2.273,0.574c-0.477,1.867-1.334,3.291-2.572,4.271s-2.752,1.471-4.541,1.471
	c-1.852,0-3.357-0.377-4.518-1.131s-2.043-1.846-2.648-3.275s-0.908-2.965-0.908-4.605c0-1.789,0.342-3.35,1.025-4.682
	s1.656-2.344,2.918-3.035s2.65-1.037,4.166-1.037c1.719,0,3.164,0.438,4.336,1.313s1.988,2.105,2.449,3.691l-2.238,0.527
	c-0.398-1.25-0.977-2.16-1.734-2.73s-1.711-0.855-2.859-0.855c-1.32,0-2.424,0.316-3.311,0.949s-1.51,1.482-1.869,2.549
	s-0.539,2.166-0.539,3.299c0,1.461,0.213,2.736,0.639,3.826s1.088,1.904,1.986,2.443s1.871,0.809,2.918,0.809
	c1.273,0,2.352-0.367,3.234-1.102S135.674,57.307,135.986,55.861z" />
		<rect fill="white" x="100.88" y="51.59" width="19.851" height="1.7" />
		<path fill="white" d="M84.305,22.236V5.057h2.273v7.055h8.93V5.057h2.273v17.18h-2.273v-8.098h-8.93v8.098H84.305z" />
		<rect fill="white" x="90.13" y="24.54" width="1.7" height="17.6" />
		<path fill="white" d="M84.305,101.533v-17.18h2.273v7.055h8.93v-7.055h2.273v17.18h-2.273v-8.098h-8.93v8.098H84.305z" />
		<rect fill="white" x="90.13" y="64.49" width="1.7" height="17.6" />
		<path fill="white" d="M161.941,53.518c0-2.852,0.766-5.084,2.297-6.697s3.508-2.42,5.93-2.42c1.586,0,3.016,0.379,4.289,1.137
	s2.244,1.814,2.912,3.17s1.002,2.893,1.002,4.611c0,1.742-0.352,3.301-1.055,4.676s-1.699,2.416-2.988,3.123
	s-2.68,1.061-4.172,1.061c-1.617,0-3.063-0.391-4.336-1.172s-2.238-1.848-2.895-3.199S161.941,55.025,161.941,53.518z
	 M164.285,53.553c0,2.07,0.557,3.701,1.67,4.893s2.51,1.787,4.189,1.787c1.711,0,3.119-0.602,4.225-1.805s1.658-2.91,1.658-5.121
	c0-1.398-0.236-2.619-0.709-3.662s-1.164-1.852-2.074-2.426s-1.932-0.861-3.064-0.861c-1.609,0-2.994,0.553-4.154,1.658
	S164.285,50.967,164.285,53.553z" />
		<path fill="white" d="M181.371,61.885v-17.18h2.273v7.055h8.93v-7.055h2.273v17.18h-2.273v-8.098h-8.93v8.098H181.371z" />
		<rect fill="white" x="140.58" y="51.59" width="19.1" height="1.7" />
		<path fill="white" d="M123.953,22.236V5.057h2.273v7.055h8.93V5.057h2.273v17.18h-2.273v-8.098h-8.93v8.098H123.953z" />
		<rect fill="white" x="129.83" y="24.54" width="1.699" height="17.6" />
		<path fill="white" d="M123.953,101.533v-17.18h2.273v7.055h8.93v-7.055h2.273v17.18h-2.273v-8.098h-8.93v8.098H123.953z" />
		<rect fill="white" x="129.83" y="64.49" width="1.699" height="17.6" />
	</symbol>
	<symbol id="essig_aq">
		<g id="g3"
		   transform="matrix(0.95,0,0,0.95,20.6246,2.441275)">
			<path style="fill:white"
				  d="M 60.144,20.435 C 60.144,17.582 60.91,15.35 62.442,13.737 C 63.974,12.123 65.952,11.316 68.375,11.316 C 69.962,11.316 71.392,11.695 72.666,12.453 C 73.94,13.212 74.911,14.268 75.58,15.624 C 76.249,16.98 76.582,18.518 76.582,20.236 C 76.582,21.979 76.23,23.538 75.527,24.913 C 74.824,26.288 73.827,27.33 72.537,28.037 C 71.247,28.744 69.856,29.098 68.363,29.098 C 66.745,29.098 65.299,28.707 64.025,27.926 C 62.751,27.145 61.786,26.077 61.129,24.726 C 60.472,23.375 60.144,21.943 60.144,20.435 z M 62.488,20.464 C 62.488,22.534 63.045,24.165 64.159,25.357 C 65.273,26.549 66.671,27.144 68.351,27.144 C 70.063,27.144 71.472,26.542 72.579,25.339 C 73.685,24.136 74.238,22.429 74.238,20.218 C 74.238,18.82 74.002,17.599 73.529,16.556 C 73.056,15.513 72.364,14.704 71.453,14.13 C 70.542,13.556 69.52,13.269 68.387,13.269 C 66.777,13.269 65.391,13.822 64.23,14.927 C 63.069,16.032 62.488,17.878 62.488,20.464 z "
				  id="path5" />
		</g>
		<path style="fill:white"
			  d="M 87.588199,32.223775 L 89.203199,32.223775 L 89.203199,60.153775 L 87.588199,60.153775 L 87.588199,32.223775 z "
			  id="rect7" />
		<path style="fill:white"
			  d="M 81.935702,32.223775 L 83.550702,32.223775 L 83.550702,60.153775 L 81.935702,60.153775 L 81.935702,32.223775 z "
			  id="rect9" />
		<g id="g11"
		   transform="matrix(0.95,0,0,0.95,20.6246,2.441275)">
			<path style="fill:white"
				  d="M 94.494,79.935 C 94.494,77.082 95.26,74.85 96.792,73.237 C 98.324,71.623 100.302,70.816 102.725,70.816 C 104.312,70.816 105.742,71.195 107.016,71.953 C 108.29,72.712 109.261,73.768 109.93,75.124 C 110.599,76.48 110.932,78.018 110.932,79.736 C 110.932,81.479 110.58,83.038 109.877,84.413 C 109.174,85.788 108.177,86.83 106.887,87.537 C 105.597,88.244 104.206,88.598 102.713,88.598 C 101.095,88.598 99.649,88.207 98.375,87.426 C 97.101,86.645 96.136,85.577 95.479,84.226 C 94.822,82.875 94.494,81.443 94.494,79.935 z M 96.838,79.964 C 96.838,82.034 97.395,83.665 98.509,84.857 C 99.623,86.049 101.021,86.644 102.701,86.644 C 104.413,86.644 105.822,86.042 106.929,84.839 C 108.035,83.636 108.588,81.929 108.588,79.718 C 108.588,78.32 108.352,77.099 107.879,76.056 C 107.406,75.013 106.714,74.204 105.803,73.63 C 104.892,73.056 103.87,72.769 102.737,72.769 C 101.127,72.769 99.741,73.322 98.58,74.427 C 97.419,75.532 96.838,77.378 96.838,79.964 z "
				  id="path13" />
			<path style="fill:white"
				  d="M 113.943,88.3 L 113.943,71.112 L 116.224,71.112 L 116.224,78.175 L 125.115,78.175 L 125.115,71.112 L 127.396,71.112 L 127.396,88.3 L 125.115,88.3 L 125.115,80.206 L 116.224,80.206 L 116.224,88.3 L 113.943,88.3 z "
				  id="path15" />
		</g>
		<path style="fill:white"
			  d="M 109.9607,71.648775 L 109.1532,73.073775 L 85.5457,59.441275 L 85.5457,57.589725 L 109.9607,71.648775 z "
			  id="polygon17" />
		<g id="g19"
		   transform="matrix(0.95,0,0,0.95,20.6246,2.441275)">
			<path style="fill:white"
				  d="M 0,88.3 L 0,71.112 L 2.281,71.112 L 2.281,78.175 L 11.172,78.175 L 11.172,71.112 L 13.453,71.112 L 13.453,88.3 L 11.172,88.3 L 11.172,80.206 L 2.281,80.206 L 2.281,88.3 L 0,88.3 z "
				  id="path21" />
		</g>
		<g id="g23"
		   transform="matrix(0.95,0,0,0.95,20.6246,2.441275)">
			<path style="fill:white"
				  d="M 15.462,89.394 L 17.04,89.175 C 17.223,90.071 17.532,90.717 17.968,91.113 C 18.405,91.508 18.94,91.706 19.575,91.706 C 20.328,91.706 20.961,91.448 21.474,90.934 C 21.987,90.418 22.243,89.78 22.243,89.018 C 22.243,88.292 22.005,87.694 21.527,87.222 C 21.05,86.75 20.444,86.515 19.708,86.515 C 19.407,86.515 19.033,86.574 18.586,86.691 L 18.763,85.3 C 18.869,85.312 18.954,85.318 19.019,85.318 C 19.693,85.318 20.3,85.143 20.84,84.792 C 21.38,84.441 21.65,83.9 21.65,83.169 C 21.65,82.59 21.453,82.11 21.059,81.731 C 20.665,81.351 20.157,81.161 19.534,81.161 C 18.917,81.161 18.402,81.355 17.991,81.743 C 17.58,82.131 17.315,82.713 17.198,83.489 L 15.62,83.208 C 15.813,82.146 16.254,81.323 16.94,80.74 C 17.626,80.156 18.48,79.864 19.501,79.864 C 20.205,79.864 20.854,80.014 21.446,80.316 C 22.038,80.617 22.491,81.028 22.806,81.548 C 23.119,82.069 23.277,82.621 23.277,83.206 C 23.277,83.762 23.128,84.268 22.829,84.724 C 22.53,85.18 22.088,85.542 21.502,85.812 C 22.264,85.988 22.856,86.353 23.281,86.906 C 23.705,87.461 23.918,88.153 23.918,88.985 C 23.918,90.111 23.507,91.064 22.685,91.846 C 21.863,92.628 20.824,93.02 19.568,93.02 C 18.435,93.02 17.494,92.683 16.746,92.011 C 15.994,91.336 15.567,90.465 15.462,89.394 z "
				  id="path25" />
		</g>
		<g id="g27"
		   transform="matrix(0.95,0,0,0.95,20.6246,2.441275)">
			<path style="fill:white"
				  d="M 39.039,82.272 L 41.32,82.846 C 40.844,84.716 39.987,86.142 38.751,87.123 C 37.514,88.104 36.001,88.596 34.214,88.596 C 32.364,88.596 30.86,88.219 29.701,87.464 C 28.542,86.71 27.66,85.616 27.055,84.186 C 26.45,82.755 26.148,81.218 26.148,79.577 C 26.148,77.787 26.489,76.224 27.172,74.891 C 27.855,73.558 28.826,72.544 30.087,71.853 C 31.347,71.162 32.733,70.815 34.247,70.815 C 35.964,70.815 37.407,71.253 38.577,72.129 C 39.748,73.006 40.563,74.237 41.023,75.826 L 38.789,76.353 C 38.391,75.103 37.814,74.193 37.058,73.623 C 36.301,73.053 35.349,72.768 34.203,72.768 C 32.885,72.768 31.783,73.084 30.897,73.717 C 30.012,74.35 29.39,75.199 29.031,76.266 C 28.672,77.333 28.493,78.432 28.493,79.565 C 28.493,81.026 28.705,82.301 29.13,83.391 C 29.555,84.481 30.215,85.295 31.112,85.834 C 32.009,86.373 32.979,86.643 34.024,86.643 C 35.295,86.643 36.37,86.276 37.251,85.541 C 38.132,84.806 38.727,83.718 39.039,82.272 z "
				  id="path29" />
		</g>
		<path style="fill:white"
			  d="M 61.9382,73.073775 L 61.1307,71.648775 L 85.5457,57.589725 L 85.5457,59.441275 L 61.9382,73.073775 z "
			  id="polygon31" />
		<g id="g33"
		   transform="matrix(0.95,0,0,0.95,20.6246,2.441275)">
			<path style="fill:white"
				  d="M 430.594,20.435 C 430.594,17.582 431.36,15.35 432.893,13.737 C 434.424,12.123 436.403,11.316 438.825,11.316 C 440.413,11.316 441.843,11.695 443.116,12.453 C 444.39,13.212 445.362,14.268 446.03,15.624 C 446.698,16.98 447.032,18.518 447.032,20.236 C 447.032,21.979 446.68,23.538 445.977,24.913 C 445.274,26.288 444.277,27.33 442.987,28.037 C 441.698,28.744 440.306,29.098 438.813,29.098 C 437.196,29.098 435.749,28.707 434.475,27.926 C 433.201,27.145 432.237,26.077 431.579,24.726 C 430.921,23.375 430.594,21.943 430.594,20.435 z M 432.938,20.464 C 432.938,22.534 433.495,24.165 434.61,25.357 C 435.723,26.548 437.122,27.144 438.801,27.144 C 440.514,27.144 441.922,26.542 443.03,25.339 C 444.135,24.136 444.688,22.429 444.688,20.218 C 444.688,18.82 444.452,17.599 443.979,16.556 C 443.506,15.513 442.814,14.704 441.903,14.13 C 440.993,13.556 439.971,13.269 438.837,13.269 C 437.228,13.269 435.841,13.822 434.681,14.927 C 433.518,16.032 432.938,17.878 432.938,20.464 z "
				  id="path35" />
		</g>
		<path style="fill:white"
			  d="M 439.51569,32.223775 L 441.13069,32.223775 L 441.13069,60.153775 L 439.51569,60.153775 L 439.51569,32.223775 z "
			  id="rect37" />
		<path style="fill:white"
			  d="M 433.86321,32.223775 L 435.47726,32.223775 L 435.47726,60.153775 L 433.86321,60.153775 L 433.86321,32.223775 z "
			  id="rect39" />
		<g id="g41"
		   transform="matrix(0.95,0,0,0.95,20.6246,2.441275)">
			<path style="fill:white"
				  d="M 464.944,79.935 C 464.944,77.082 465.71,74.85 467.242,73.237 C 468.774,71.623 470.752,70.816 473.175,70.816 C 474.762,70.816 476.192,71.195 477.466,71.953 C 478.74,72.712 479.711,73.768 480.379,75.124 C 481.048,76.479 481.382,78.018 481.382,79.736 C 481.382,81.479 481.03,83.038 480.326,84.413 C 479.623,85.788 478.627,86.83 477.337,87.537 C 476.047,88.244 474.656,88.598 473.163,88.598 C 471.545,88.598 470.099,88.207 468.825,87.426 C 467.551,86.645 466.586,85.577 465.929,84.226 C 465.272,82.873 464.944,81.443 464.944,79.935 z M 467.288,79.964 C 467.288,82.034 467.845,83.665 468.959,84.857 C 470.073,86.049 471.471,86.644 473.151,86.644 C 474.863,86.644 476.272,86.042 477.379,84.839 C 478.484,83.636 479.038,81.929 479.038,79.718 C 479.038,78.32 478.802,77.099 478.328,76.056 C 477.855,75.013 477.164,74.204 476.253,73.63 C 475.342,73.056 474.32,72.769 473.187,72.769 C 471.577,72.769 470.191,73.322 469.03,74.427 C 467.869,75.532 467.288,77.378 467.288,79.964 z "
				  id="path43" />
		</g>
		<path style="fill:white"
			  d="M 461.93475,71.696275 L 461.1282,73.073775 L 437.47225,59.441275 L 437.47225,57.589725 L 461.93475,71.696275 z "
			  id="polygon45" />
		<g id="g47"
		   transform="matrix(0.95,0,0,0.95,20.6246,2.441275)">
			<path style="fill:white"
				  d="M 370.45,88.3 L 370.45,71.112 L 372.731,71.112 L 372.731,78.175 L 381.622,78.175 L 381.622,71.112 L 383.903,71.112 L 383.903,88.3 L 381.622,88.3 L 381.622,80.206 L 372.731,80.206 L 372.731,88.3 L 370.45,88.3 z "
				  id="path49" />
		</g>
		<g id="g51"
		   transform="matrix(0.95,0,0,0.95,20.6246,2.441275)">
			<path style="fill:white"
				  d="M 385.912,89.394 L 387.49,89.175 C 387.673,90.071 387.982,90.717 388.418,91.113 C 388.855,91.508 389.39,91.706 390.025,91.706 C 390.778,91.706 391.411,91.448 391.924,90.934 C 392.437,90.418 392.693,89.78 392.693,89.018 C 392.693,88.292 392.455,87.694 391.977,87.222 C 391.5,86.75 390.894,86.515 390.158,86.515 C 389.857,86.515 389.483,86.574 389.036,86.691 L 389.213,85.3 C 389.319,85.312 389.404,85.318 389.469,85.318 C 390.143,85.318 390.75,85.143 391.29,84.792 C 391.83,84.441 392.1,83.9 392.1,83.169 C 392.1,82.59 391.903,82.11 391.509,81.731 C 391.115,81.351 390.607,81.161 389.984,81.161 C 389.367,81.161 388.852,81.355 388.441,81.743 C 388.03,82.131 387.765,82.713 387.648,83.489 L 386.07,83.208 C 386.263,82.146 386.704,81.323 387.39,80.74 C 388.076,80.156 388.93,79.864 389.951,79.864 C 390.655,79.864 391.304,80.014 391.896,80.316 C 392.488,80.617 392.941,81.028 393.256,81.548 C 393.569,82.069 393.727,82.621 393.727,83.206 C 393.727,83.762 393.578,84.268 393.279,84.724 C 392.98,85.18 392.538,85.542 391.952,85.812 C 392.714,85.988 393.306,86.353 393.731,86.906 C 394.155,87.461 394.368,88.153 394.368,88.985 C 394.368,90.111 393.957,91.064 393.135,91.846 C 392.313,92.628 391.274,93.02 390.018,93.02 C 388.885,93.02 387.944,92.683 387.196,92.011 C 386.444,91.336 386.017,90.465 385.912,89.394 z "
				  id="path53" />
		</g>
		<g id="g55"
		   transform="matrix(0.95,0,0,0.95,20.6246,2.441275)">
			<path style="fill:white"
				  d="M 409.489,82.272 L 411.77,82.846 C 411.294,84.716 410.437,86.142 409.201,87.123 C 407.964,88.104 406.451,88.596 404.664,88.596 C 402.814,88.596 401.31,88.219 400.151,87.464 C 398.992,86.71 398.11,85.616 397.505,84.186 C 396.9,82.755 396.598,81.218 396.598,79.577 C 396.598,77.787 396.939,76.224 397.622,74.891 C 398.305,73.558 399.276,72.544 400.537,71.853 C 401.797,71.162 403.183,70.815 404.697,70.815 C 406.414,70.815 407.857,71.253 409.027,72.129 C 410.198,73.006 411.013,74.237 411.473,75.826 L 409.239,76.353 C 408.841,75.103 408.264,74.193 407.508,73.623 C 406.751,73.053 405.799,72.768 404.653,72.768 C 403.335,72.768 402.233,73.084 401.347,73.717 C 400.462,74.35 399.84,75.199 399.481,76.266 C 399.122,77.333 398.943,78.432 398.943,79.565 C 398.943,81.026 399.155,82.301 399.58,83.391 C 400.005,84.481 400.665,85.295 401.562,85.834 C 402.459,86.373 403.429,86.643 404.474,86.643 C 405.745,86.643 406.82,86.276 407.701,85.541 C 408.582,84.806 409.177,83.718 409.489,82.272 z "
				  id="path57" />
		</g>
		<path style="fill:white"
			  d="M 413.8657,73.073775 L 413.0582,71.648775 L 437.47225,57.589725 L 437.47225,59.441275 L 413.8657,73.073775 z "
			  id="polygon59" />
		<g id="g61"
		   transform="matrix(0.95,0,0,0.95,20.6246,2.441275)">
			<path style="fill:white"
				  d="M 666.443,20.435 C 666.443,17.582 667.209,15.35 668.742,13.737 C 670.273,12.123 672.252,11.316 674.674,11.316 C 676.262,11.316 677.692,11.695 678.965,12.453 C 680.239,13.212 681.211,14.268 681.879,15.624 C 682.547,16.98 682.881,18.518 682.881,20.236 C 682.881,21.979 682.529,23.538 681.826,24.913 C 681.123,26.288 680.126,27.33 678.836,28.037 C 677.547,28.744 676.155,29.098 674.662,29.098 C 673.045,29.098 671.598,28.707 670.324,27.926 C 669.05,27.145 668.086,26.077 667.428,24.726 C 666.77,23.375 666.443,21.943 666.443,20.435 z M 668.787,20.464 C 668.787,22.534 669.344,24.165 670.459,25.357 C 671.572,26.548 672.971,27.144 674.65,27.144 C 676.363,27.144 677.771,26.542 678.879,25.339 C 679.984,24.136 680.537,22.429 680.537,20.218 C 680.537,18.82 680.301,17.599 679.828,16.556 C 679.355,15.513 678.663,14.704 677.752,14.13 C 676.842,13.556 675.82,13.269 674.686,13.269 C 673.077,13.269 671.69,13.822 670.53,14.927 C 669.367,16.032 668.787,17.878 668.787,20.464 z "
				  id="path63" />
		</g>
		<path style="fill:white"
			  d="M 662.3857,58.966275 L 660.7707,58.064725 L 660.7707,32.223775 L 662.3857,32.223775 L 662.3857,58.966275 z "
			  id="polygon65" />
		<g id="g67"
		   transform="matrix(0.95,0,0,0.95,20.6246,2.441275)">
			<path style="fill:white"
				  d="M 700.794,79.935 C 700.794,77.082 701.56,74.85 703.092,73.237 C 704.624,71.623 706.602,70.816 709.025,70.816 C 710.612,70.816 712.042,71.195 713.316,71.953 C 714.59,72.712 715.561,73.768 716.229,75.124 C 716.898,76.479 717.232,78.018 717.232,79.736 C 717.232,81.479 716.88,83.038 716.176,84.413 C 715.473,85.788 714.477,86.83 713.187,87.537 C 711.897,88.244 710.506,88.598 709.013,88.598 C 707.395,88.598 705.949,88.207 704.675,87.426 C 703.401,86.645 702.436,85.577 701.779,84.226 C 701.122,82.873 700.794,81.443 700.794,79.935 z M 703.138,79.964 C 703.138,82.034 703.695,83.665 704.809,84.857 C 705.923,86.049 707.321,86.644 709.001,86.644 C 710.713,86.644 712.122,86.042 713.229,84.839 C 714.334,83.636 714.888,81.929 714.888,79.718 C 714.888,78.32 714.652,77.099 714.178,76.056 C 713.705,75.013 713.014,74.204 712.103,73.63 C 711.192,73.056 710.17,72.769 709.037,72.769 C 707.427,72.769 706.041,73.322 704.88,74.427 C 703.719,75.532 703.138,77.378 703.138,79.964 z "
				  id="path69" />
		</g>
		<path style="fill:white"
			  d="M 687.3707,69.227225 L 686.56225,70.603775 L 661.1507,55.927225 L 662.0057,54.548775 L 687.3707,69.227225 z "
			  id="polygon71" />
		<path style="fill:white"
			  d="M 684.5682,74.118775 L 683.7607,75.496275 L 658.3482,60.818775 L 659.1557,59.441275 L 684.5682,74.118775 z "
			  id="polygon73" />
		<g id="g75"
		   transform="matrix(0.95,0,0,0.95,20.6246,2.441275)">
			<path style="fill:white"
				  d="M 606.35,88.3 L 606.35,71.112 L 608.631,71.112 L 608.631,78.175 L 617.522,78.175 L 617.522,71.112 L 619.803,71.112 L 619.803,88.3 L 617.522,88.3 L 617.522,80.206 L 608.631,80.206 L 608.631,88.3 L 606.35,88.3 z "
				  id="path77" />
		</g>
		<g id="g79"
		   transform="matrix(0.95,0,0,0.95,20.6246,2.441275)">
			<path style="fill:white"
				  d="M 621.812,89.394 L 623.39,89.175 C 623.573,90.071 623.882,90.717 624.318,91.113 C 624.755,91.508 625.29,91.706 625.925,91.706 C 626.678,91.706 627.311,91.448 627.824,90.934 C 628.336,90.418 628.593,89.78 628.593,89.018 C 628.593,88.292 628.355,87.694 627.877,87.222 C 627.4,86.75 626.793,86.515 626.058,86.515 C 625.757,86.515 625.383,86.574 624.936,86.691 L 625.113,85.3 C 625.219,85.312 625.304,85.318 625.369,85.318 C 626.044,85.318 626.65,85.143 627.19,84.792 C 627.729,84.441 628,83.9 628,83.169 C 628,82.59 627.803,82.11 627.409,81.731 C 627.014,81.351 626.507,81.161 625.884,81.161 C 625.267,81.161 624.752,81.355 624.341,81.743 C 623.929,82.131 623.664,82.713 623.547,83.489 L 621.969,83.208 C 622.162,82.146 622.603,81.323 623.289,80.74 C 623.976,80.156 624.829,79.864 625.85,79.864 C 626.554,79.864 627.203,80.014 627.794,80.316 C 628.387,80.617 628.84,81.028 629.154,81.548 C 629.467,82.069 629.625,82.621 629.625,83.206 C 629.625,83.762 629.476,84.268 629.177,84.724 C 628.878,85.18 628.436,85.542 627.85,85.812 C 628.612,85.988 629.204,86.353 629.629,86.906 C 630.054,87.461 630.266,88.153 630.266,88.985 C 630.266,90.111 629.855,91.064 629.033,91.846 C 628.212,92.628 627.173,93.02 625.917,93.02 C 624.783,93.02 623.843,92.683 623.095,92.011 C 622.344,91.336 621.917,90.465 621.812,89.394 z "
				  id="path81" />
		</g>
		<g id="g83"
		   transform="matrix(0.95,0,0,0.95,20.6246,2.441275)">
			<path style="fill:white"
				  d="M 645.389,82.272 L 647.67,82.846 C 647.194,84.716 646.338,86.142 645.102,87.123 C 643.864,88.104 642.352,88.596 640.565,88.596 C 638.715,88.596 637.211,88.219 636.051,87.464 C 634.893,86.71 634.01,85.616 633.406,84.186 C 632.801,82.755 632.498,81.218 632.498,79.577 C 632.498,77.787 632.84,76.224 633.522,74.891 C 634.204,73.558 635.175,72.544 636.437,71.853 C 637.697,71.162 639.083,70.815 640.597,70.815 C 642.314,70.815 643.757,71.253 644.927,72.129 C 646.097,73.006 646.912,74.237 647.372,75.826 L 645.138,76.353 C 644.741,75.103 644.163,74.193 643.408,73.623 C 642.65,73.053 641.699,72.768 640.553,72.768 C 639.235,72.768 638.133,73.084 637.246,73.717 C 636.361,74.35 635.739,75.199 635.381,76.266 C 635.022,77.332 634.842,78.432 634.842,79.565 C 634.842,81.026 635.055,82.301 635.48,83.391 C 635.905,84.481 636.565,85.295 637.461,85.834 C 638.357,86.373 639.328,86.643 640.373,86.643 C 641.644,86.643 642.719,86.276 643.6,85.541 C 644.481,84.806 645.077,83.718 645.389,82.272 z "
				  id="path85" />
		</g>
		<path style="fill:white"
			  d="M 637.9707,73.073775 L 637.1632,71.648775 L 660.7707,58.064725 L 662.3857,58.966275 L 637.9707,73.073775 z "
			  id="polygon87" />
		<path style="fill:none;stroke:white;stroke-width:1.35000002"
			  d="M 562.7307,58.348773 L 515.51569,58.348773"
			  id="line89" />
		<path style="fill:white"
			  d="M 576.8382,58.348775 L 560.6882,54.216275 C 560.6882,54.216275 562.6832,56.543775 562.6832,58.348775 C 562.6832,60.153775 560.6882,62.482225 560.6882,62.482225 L 576.8382,58.348775"
			  id="path91" />
		<path style="fill:white"
			  d="M 501.4082,58.348775 L 517.6057,54.264725 C 517.6057,54.264725 515.56415,56.591275 515.56415,58.348775 C 515.56415,60.202225 517.6057,62.528775 517.6057,62.528775 L 501.4082,58.348775"
			  id="path93" />
		<path style="fill:none;stroke:white;stroke-width:1.35000002"
			  d="M 320.0057,55.927225 L 256.2607,55.927225 M 267.8982,60.818775 L 331.6432,60.818775"
			  id="path95" />
		<path style="fill:white"
			  d="M 334.0657,56.733775 L 317.9157,51.793775 C 317.9157,51.793775 319.9582,54.121275 319.9582,56.733775 L 334.0657,56.733775"
			  id="path97" />
		<path style="fill:white"
			  d="M 253.8382,60.011275 L 267.9457,60.011275 C 267.9457,61.009725 269.9882,64.952225 269.9882,64.952225 L 253.8382,60.011275"
			  id="path99" />
		<path style="fill:none;stroke:white;stroke-width:1.35000002"
			  d="M 476.5182,67.611275 L 484.1182,67.611275 M 667.6582,10.896275 L 675.2582,10.896275"
			  id="path101" />
		<path style="fill:none;stroke:white;stroke-width:1.70000005"
			  d="M 367.6957,94.402225 L 361.9957,94.402225 L 361.9957,3.248775 L 367.6957,3.248775 M 706.0382,3.248775 L 711.7382,3.248775 L 711.7382,94.402225 L 706.0382,94.402225"
			  id="path103" />
		<g id="g105"
		   transform="matrix(0.95,0,0,0.95,20.6246,2.441275)">
			<path style="fill:white"
				  d="M 757.703,65.118 L 757.703,60.399 L 753.031,60.399 L 753.031,58.43 L 757.703,58.43 L 757.703,53.758 L 759.703,53.758 L 759.703,58.43 L 764.375,58.43 L 764.375,60.399 L 759.703,60.399 L 759.703,65.118 L 757.703,65.118 z "
				  id="path107" />
		</g>
		<g id="g109"
		   transform="matrix(0.95,0,0,0.95,20.6246,2.441275)">
			<path style="fill:white"
				  d="M 773.019,67.899 L 773.019,50.712 L 775.3,50.712 L 775.3,57.775 L 784.191,57.775 L 784.191,50.712 L 786.472,50.712 L 786.472,67.9 L 784.191,67.9 L 784.191,59.806 L 775.3,59.806 L 775.3,67.9 L 773.019,67.9 L 773.019,67.899 z "
				  id="path111" />
		</g>
		<g id="g113"
		   transform="matrix(0.95,0,0,0.95,20.6246,2.441275)">
			<path style="fill:white"
				  d="M 788.48,68.993 L 790.058,68.774 C 790.24,69.67 790.55,70.316 790.986,70.712 C 791.422,71.107 791.958,71.305 792.593,71.305 C 793.345,71.305 793.979,71.047 794.491,70.533 C 795.004,70.017 795.261,69.379 795.261,68.617 C 795.261,67.891 795.023,67.293 794.544,66.821 C 794.067,66.349 793.461,66.114 792.726,66.114 C 792.425,66.114 792.05,66.173 791.603,66.29 L 791.781,64.899 C 791.886,64.911 791.972,64.917 792.037,64.917 C 792.711,64.917 793.318,64.742 793.857,64.391 C 794.397,64.04 794.668,63.499 794.668,62.768 C 794.668,62.189 794.471,61.709 794.076,61.33 C 793.682,60.95 793.174,60.76 792.551,60.76 C 791.934,60.76 791.42,60.954 791.008,61.342 C 790.596,61.73 790.332,62.312 790.215,63.088 L 788.637,62.807 C 788.83,61.745 789.27,60.922 789.957,60.339 C 790.643,59.755 791.496,59.463 792.518,59.463 C 793.221,59.463 793.87,59.613 794.462,59.915 C 795.055,60.216 795.508,60.627 795.822,61.147 C 796.135,61.668 796.293,62.22 796.293,62.805 C 796.293,63.361 796.143,63.867 795.844,64.323 C 795.545,64.779 795.104,65.141 794.518,65.411 C 795.28,65.587 795.872,65.952 796.297,66.505 C 796.721,67.06 796.934,67.752 796.934,68.584 C 796.934,69.71 796.522,70.663 795.701,71.445 C 794.88,72.227 793.841,72.619 792.585,72.619 C 791.451,72.619 790.511,72.282 789.763,71.61 C 789.012,70.936 788.586,70.064 788.48,68.993 z "
				  id="path115" />
		</g>
		<g id="g117"
		   transform="matrix(0.95,0,0,0.95,20.6246,2.441275)">
			<path style="fill:white"
				  d="M 799.119,59.534 C 799.119,56.681 799.885,54.449 801.418,52.836 C 802.949,51.222 804.928,50.415 807.35,50.415 C 808.938,50.415 810.368,50.794 811.641,51.552 C 812.915,52.311 813.887,53.367 814.555,54.723 C 815.223,56.079 815.557,57.617 815.557,59.335 C 815.557,61.078 815.205,62.637 814.502,64.012 C 813.799,65.387 812.802,66.429 811.512,67.136 C 810.223,67.843 808.831,68.197 807.338,68.197 C 805.721,68.197 804.274,67.806 803,67.025 C 801.726,66.244 800.762,65.176 800.104,63.825 C 799.446,62.474 799.119,61.043 799.119,59.534 z M 801.463,59.563 C 801.463,61.633 802.02,63.264 803.135,64.456 C 804.248,65.647 805.647,66.243 807.326,66.243 C 809.039,66.243 810.447,65.641 811.555,64.438 C 812.66,63.235 813.213,61.528 813.213,59.317 C 813.213,57.919 812.977,56.698 812.504,55.655 C 812.031,54.612 811.339,53.803 810.428,53.229 C 809.518,52.655 808.496,52.368 807.362,52.368 C 805.753,52.368 804.366,52.921 803.206,54.026 C 802.043,55.132 801.463,56.978 801.463,59.563 z "
				  id="path119" />
		</g>
		<g id="g121"
		   transform="matrix(0.95,0,0,0.95,20.6246,2.441275)">
			<path style="fill:white"
				  d="M 819.984,56.821 L 819.984,53.29 L 816.484,53.29 L 816.484,51.806 L 819.984,51.806 L 819.984,48.306 L 821.484,48.306 L 821.484,51.806 L 824.984,51.806 L 824.984,53.29 L 821.484,53.29 L 821.484,56.821 L 819.984,56.821 z "
				  id="path123" />
		</g>
		<g id="g125"
		   transform="matrix(0.95,0,0,0.95,20.6246,2.441275)">
			<path style="fill:white"
				  d="M 158.303,65.118 L 158.303,60.399 L 153.631,60.399 L 153.631,58.43 L 158.303,58.43 L 158.303,53.758 L 160.303,53.758 L 160.303,58.43 L 164.975,58.43 L 164.975,60.399 L 160.303,60.399 L 160.303,65.118 L 158.303,65.118 z "
				  id="path127" />
		</g>
		<g id="g129"
		   transform="matrix(0.95,0,0,0.95,20.6246,2.441275)">
			<path style="fill:white"
				  d="M 173.619,67.899 L 173.619,50.712 L 175.9,50.712 L 175.9,57.775 L 184.791,57.775 L 184.791,50.712 L 187.072,50.712 L 187.072,67.9 L 184.791,67.9 L 184.791,59.806 L 175.9,59.806 L 175.9,67.9 L 173.619,67.9 L 173.619,67.899 z "
				  id="path131" />
		</g>
		<g id="g133"
		   transform="matrix(0.95,0,0,0.95,20.6246,2.441275)">
			<path style="fill:white"
				  d="M 197.393,70.884 L 197.393,72.4 L 188.862,72.4 C 188.85,72.019 188.912,71.653 189.048,71.301 C 189.266,70.721 189.615,70.15 190.096,69.588 C 190.576,69.026 191.266,68.377 192.166,67.641 C 193.562,66.488 194.508,65.577 195.006,64.907 C 195.504,64.237 195.753,63.602 195.753,63.004 C 195.753,62.378 195.528,61.851 195.078,61.42 C 194.628,60.99 194.041,60.775 193.318,60.775 C 192.552,60.775 191.941,61.004 191.482,61.463 C 191.023,61.922 190.791,62.557 190.785,63.368 L 189.16,63.196 C 189.271,61.98 189.691,61.054 190.42,60.418 C 191.148,59.78 192.126,59.462 193.354,59.462 C 194.593,59.462 195.574,59.805 196.296,60.491 C 197.018,61.177 197.379,62.027 197.379,63.041 C 197.379,63.557 197.273,64.064 197.062,64.562 C 196.851,65.06 196.499,65.585 196.009,66.136 C 195.518,66.687 194.705,67.443 193.569,68.404 C 192.618,69.202 192.007,69.742 191.736,70.027 C 191.465,70.31 191.24,70.596 191.063,70.883 L 197.393,70.883 L 197.393,70.884 z "
				  id="path135" />
		</g>
		<g id="g137"
		   transform="matrix(0.95,0,0,0.95,20.6246,2.441275)">
			<path style="fill:white"
				  d="M 199.72,59.534 C 199.72,56.681 200.486,54.449 202.018,52.836 C 203.55,51.222 205.528,50.415 207.951,50.415 C 209.538,50.415 210.968,50.794 212.242,51.552 C 213.516,52.311 214.487,53.367 215.156,54.723 C 215.825,56.079 216.158,57.617 216.158,59.335 C 216.158,61.078 215.806,62.637 215.103,64.012 C 214.4,65.387 213.403,66.429 212.113,67.136 C 210.823,67.843 209.432,68.197 207.939,68.197 C 206.321,68.197 204.875,67.806 203.601,67.025 C 202.327,66.244 201.362,65.176 200.705,63.825 C 200.048,62.474 199.72,61.043 199.72,59.534 z M 202.063,59.563 C 202.063,61.633 202.62,63.264 203.734,64.456 C 204.848,65.648 206.246,66.243 207.926,66.243 C 209.638,66.243 211.047,65.641 212.154,64.438 C 213.26,63.235 213.813,61.528 213.813,59.317 C 213.813,57.919 213.577,56.698 213.104,55.655 C 212.631,54.612 211.939,53.803 211.028,53.229 C 210.117,52.655 209.095,52.368 207.962,52.368 C 206.352,52.368 204.966,52.921 203.805,54.026 C 202.644,55.131 202.063,56.978 202.063,59.563 z "
				  id="path139" />
		</g>
	</symbol>
	<symbol id="essig_magnesium" width="46.376ex" height="2.843ex" style="vertical-align: -0.838ex;" viewBox="0 -863.1 19967.3 1223.9">
		<defs aria-hidden="true">
			<path stroke-width="1" id="E1-MJMAIN-4D" d="M132 622Q125 629 121 631T105 634T62 637H29V683H135Q221 683 232 682T249 675Q250 674 354 398L458 124L562 398Q666 674 668 675Q671 681 683 682T781 683H887V637H854Q814 636 803 634T785 622V61Q791 51 802 49T854 46H887V0H876Q855 3 736 3Q605 3 596 0H585V46H618Q660 47 669 49T688 61V347Q688 424 688 461T688 546T688 613L687 632Q454 14 450 7Q446 1 430 1T410 7Q409 9 292 316L176 624V606Q175 588 175 543T175 463T175 356L176 86Q187 50 261 46H278V0H269Q254 3 154 3Q52 3 37 0H29V46H46Q78 48 98 56T122 69T132 86V622Z"></path>
			<path stroke-width="1" id="E1-MJMAIN-67" d="M329 409Q373 453 429 453Q459 453 472 434T485 396Q485 382 476 371T449 360Q416 360 412 390Q410 404 415 411Q415 412 416 414V415Q388 412 363 393Q355 388 355 386Q355 385 359 381T368 369T379 351T388 325T392 292Q392 230 343 187T222 143Q172 143 123 171Q112 153 112 133Q112 98 138 81Q147 75 155 75T227 73Q311 72 335 67Q396 58 431 26Q470 -13 470 -72Q470 -139 392 -175Q332 -206 250 -206Q167 -206 107 -175Q29 -140 29 -75Q29 -39 50 -15T92 18L103 24Q67 55 67 108Q67 155 96 193Q52 237 52 292Q52 355 102 398T223 442Q274 442 318 416L329 409ZM299 343Q294 371 273 387T221 404Q192 404 171 388T145 343Q142 326 142 292Q142 248 149 227T179 192Q196 182 222 182Q244 182 260 189T283 207T294 227T299 242Q302 258 302 292T299 343ZM403 -75Q403 -50 389 -34T348 -11T299 -2T245 0H218Q151 0 138 -6Q118 -15 107 -34T95 -74Q95 -84 101 -97T122 -127T170 -155T250 -167Q319 -167 361 -139T403 -75Z"></path>
			<path stroke-width="1" id="E1-MJMAIN-2B" d="M56 237T56 250T70 270H369V420L370 570Q380 583 389 583Q402 583 409 568V270H707Q722 262 722 250T707 230H409V-68Q401 -82 391 -82H389H387Q375 -82 369 -68V230H70Q56 237 56 250Z"></path>
			<path stroke-width="1" id="E1-MJMAIN-32" d="M109 429Q82 429 66 447T50 491Q50 562 103 614T235 666Q326 666 387 610T449 465Q449 422 429 383T381 315T301 241Q265 210 201 149L142 93L218 92Q375 92 385 97Q392 99 409 186V189H449V186Q448 183 436 95T421 3V0H50V19V31Q50 38 56 46T86 81Q115 113 136 137Q145 147 170 174T204 211T233 244T261 278T284 308T305 340T320 369T333 401T340 431T343 464Q343 527 309 573T212 619Q179 619 154 602T119 569T109 550Q109 549 114 549Q132 549 151 535T170 489Q170 464 154 447T109 429Z"></path>
			<path stroke-width="1" id="E1-MJMAIN-43" d="M56 342Q56 428 89 500T174 615T283 681T391 705Q394 705 400 705T408 704Q499 704 569 636L582 624L612 663Q639 700 643 704Q644 704 647 704T653 705H657Q660 705 666 699V419L660 413H626Q620 419 619 430Q610 512 571 572T476 651Q457 658 426 658Q322 658 252 588Q173 509 173 342Q173 221 211 151Q232 111 263 84T328 45T384 29T428 24Q517 24 571 93T626 244Q626 251 632 257H660L666 251V236Q661 133 590 56T403 -21Q262 -21 159 83T56 342Z"></path>
			<path stroke-width="1" id="E1-MJMAIN-48" d="M128 622Q121 629 117 631T101 634T58 637H25V683H36Q57 680 180 680Q315 680 324 683H335V637H302Q262 636 251 634T233 622L232 500V378H517V622Q510 629 506 631T490 634T447 637H414V683H425Q446 680 569 680Q704 680 713 683H724V637H691Q651 636 640 634T622 622V61Q628 51 639 49T691 46H724V0H713Q692 3 569 3Q434 3 425 0H414V46H447Q489 47 498 49T517 61V332H232V197L233 61Q239 51 250 49T302 46H335V0H324Q303 3 180 3Q45 3 36 0H25V46H58Q100 47 109 49T128 61V622Z"></path>
			<path stroke-width="1" id="E1-MJMAIN-33" d="M127 463Q100 463 85 480T69 524Q69 579 117 622T233 665Q268 665 277 664Q351 652 390 611T430 522Q430 470 396 421T302 350L299 348Q299 347 308 345T337 336T375 315Q457 262 457 175Q457 96 395 37T238 -22Q158 -22 100 21T42 130Q42 158 60 175T105 193Q133 193 151 175T169 130Q169 119 166 110T159 94T148 82T136 74T126 70T118 67L114 66Q165 21 238 21Q293 21 321 74Q338 107 338 175V195Q338 290 274 322Q259 328 213 329L171 330L168 332Q166 335 166 348Q166 366 174 366Q202 366 232 371Q266 376 294 413T322 525V533Q322 590 287 612Q265 626 240 626Q208 626 181 615T143 592T132 580H135Q138 579 143 578T153 573T165 566T175 555T183 540T186 520Q186 498 172 481T127 463Z"></path>
			<path stroke-width="1" id="E1-MJMAIN-4F" d="M56 340Q56 423 86 494T164 610T270 680T388 705Q521 705 621 601T722 341Q722 260 693 191T617 75T510 4T388 -22T267 3T160 74T85 189T56 340ZM467 647Q426 665 388 665Q360 665 331 654T269 620T213 549T179 439Q174 411 174 354Q174 144 277 61Q327 20 385 20H389H391Q474 20 537 99Q603 188 603 354Q603 411 598 439Q577 592 467 647Z"></path>
			<path stroke-width="1" id="E1-MJMAIN-2192" d="M56 237T56 250T70 270H835Q719 357 692 493Q692 494 692 496T691 499Q691 511 708 511H711Q720 511 723 510T729 506T732 497T735 481T743 456Q765 389 816 336T935 261Q944 258 944 250Q944 244 939 241T915 231T877 212Q836 186 806 152T761 85T740 35T732 4Q730 -6 727 -8T711 -11Q691 -11 691 0Q691 7 696 25Q728 151 835 230H70Q56 237 56 250Z"></path>
			<path stroke-width="1" id="E1-MJMAIN-28" d="M94 250Q94 319 104 381T127 488T164 576T202 643T244 695T277 729T302 750H315H319Q333 750 333 741Q333 738 316 720T275 667T226 581T184 443T167 250T184 58T225 -81T274 -167T316 -220T333 -241Q333 -250 318 -250H315H302L274 -226Q180 -141 137 -14T94 250Z"></path>
			<path stroke-width="1" id="E1-MJMAIN-29" d="M60 749L64 750Q69 750 74 750H86L114 726Q208 641 251 514T294 250Q294 182 284 119T261 12T224 -76T186 -143T145 -194T113 -227T90 -246Q87 -249 86 -250H74Q66 -250 63 -250T58 -247T55 -238Q56 -237 66 -225Q221 -64 221 250T66 725Q56 737 55 738Q55 746 60 749Z"></path>
			<path stroke-width="1" id="E1-MJMAIN-2191" d="M27 414Q17 414 17 433Q17 437 17 439T17 444T19 447T20 450T22 452T26 453T30 454T36 456Q80 467 120 494T180 549Q227 607 238 678Q240 694 251 694Q259 694 261 684Q261 677 265 659T284 608T320 549Q340 525 363 507T405 479T440 463T467 455T479 451Q483 447 483 433Q483 413 472 413Q467 413 458 416Q342 448 277 545L270 555V-179Q262 -193 252 -193H250H248Q236 -193 230 -179V555L223 545Q192 499 146 467T70 424T27 414Z"></path>
		</defs>
		<g stroke="white" fill="white" stroke-width="0" transform="matrix(1 0 0 -1 0 0)" aria-hidden="true">
			<use href="#E1-MJMAIN-4D" x="0" y="0"></use>
			<use href="#E1-MJMAIN-67" x="917" y="0"></use>
			<use href="#E1-MJMAIN-2B" x="1640" y="0"></use>
			<use href="#E1-MJMAIN-32" x="2640" y="0"></use>
			<use href="#E1-MJMAIN-43" x="3391" y="0"></use>
			<g transform="translate(4113,0)">
				<use href="#E1-MJMAIN-48" x="0" y="0"></use>
				<use transform="scale(0.707)" href="#E1-MJMAIN-33" x="1061" y="-213"></use>
			</g>
			<use href="#E1-MJMAIN-43" x="5318" y="0"></use>
			<use href="#E1-MJMAIN-4F" x="6040" y="0"></use>
			<use href="#E1-MJMAIN-4F" x="6819" y="0"></use>
			<use href="#E1-MJMAIN-48" x="7597" y="0"></use>
			<use href="#E1-MJMAIN-2192" x="8626" y="0"></use>
			<use href="#E1-MJMAIN-4D" x="9904" y="0"></use>
			<use href="#E1-MJMAIN-67" x="10821" y="0"></use>
			<use href="#E1-MJMAIN-28" x="11322" y="0"></use>
			<use href="#E1-MJMAIN-43" x="11711" y="0"></use>
			<g transform="translate(12434,0)">
				<use href="#E1-MJMAIN-48" x="0" y="0"></use>
				<use transform="scale(0.707)" href="#E1-MJMAIN-33" x="1061" y="-213"></use>
			</g>
			<use href="#E1-MJMAIN-43" x="13638" y="0"></use>
			<use href="#E1-MJMAIN-4F" x="14361" y="0"></use>
			<use href="#E1-MJMAIN-4F" x="15139" y="0"></use>
			<g transform="translate(15918,0)">
				<use href="#E1-MJMAIN-29" x="0" y="0"></use>
				<use transform="scale(0.707)" href="#E1-MJMAIN-32" x="550" y="-213"></use>
			</g>
			<use href="#E1-MJMAIN-2B" x="16983" y="0"></use>
			<g transform="translate(17984,0)">
				<use href="#E1-MJMAIN-48" x="0" y="0"></use>
				<use transform="scale(0.707)" href="#E1-MJMAIN-32" x="1061" y="-213"></use>
			</g>
			<use href="#E1-MJMAIN-2191" x="19466" y="0"></use>
		</g>
	</symbol>
	<style type="text/css">		
		text{
			font-family:Arial;
			fill: white;
		}		
		
		#background{
			animation-name: FadeIn;
			animation-duration: 2s;
		}
		@keyframes FadeIn {
		  from { opacity: 0; }
		  to { opacity: 1; }
		}
		@keyframes FadeOut {
			0% { 
				opacity:1;
			}
			100% { 
				opacity:0;
			}
		}
	</style>
	<use id="background" href="#back" />
	<script type="text/javascript">
		function Speak(msg){
			if ('speechSynthesis' in window) {
				let u = new SpeechSynthesisUtterance(msg);
				u.rate = 1.1;
				u.lang = "de-DE";
				window.speechSynthesis.speak(u);
			} else {
				console.error("Browser not supported!!!");
            }
		}
		if ('speechSynthesis' in window) {
			
		} else {
            alert("Bitte einen anderen Browser nutzten!!");
        }
		setTimeout(function(){
			Speak("Diese Animation wurde nur mit einem Text-Editor erstellt!");	
		}, 500);
		setTimeout(function(){			
			Speak("Heute geht es um die Essigsure.");
			Speak("Zunchst einmal die Definition der wichtigsten Begriffe.");
			Speak("Der Eisessig ist chemisch gesehen reine Essigsure. Er ist ein farbloser Stoff mit einem stechenden Geruch. Er verdampft bei einer Temperatur von 118 C und schmiltzt ab 16,5C.");
			Speak("Da er im gefrohrenen Zustand wie Eis aus sieht, wird er auch Eisessig genannt!");
			
			Speak("Die Essigsure ist ein Rein-Stoff, deren Summenformel CH3, C O O H lautet. Nheres zu Aufbau und Eigenschaften spter...");
			
			Speak('Der Begriff "Essig" ist gesetzlich definiert und meint eine Essigsure-Lsung mit einem typischen Essigsure-Anteil von 5 bis 6%. Maximal 15,5%. Er ist zum Verzehr geeignet.');
			
			Speak('Hier noch einmal die Eigenschaften der Essigsure aufgelistet:');
			Speak('Doch warum sind Siede und Schmelztemperatur im Vergleich zu Propan-1-ol und Propanal so hoch?');

			Speak('Schauen wir uns den Aufbauer der Essigsure doch etwas genauer an:');
			Speak('Die Funktionelle-Gruppe der Essigsure ist die stark polare Carboxylgruppe.');
			Speak('Mit ihrer Hilfe knnen 2 Wasserstoff-Brcken zwischen 2 Moleklen entstehen.');

			Speak('Im Vergleich dazu das Propan-1-ol Molekl. Es hat weder start polarisierte H-Atome, noch geignete freie Elektronenparre um eine starke Bindung mit Hilfe von H-Brcken einzugehen.');
			Speak("Da man beim Wechsel in einen energie-reicheren Aggregats-zustand mehr Energie zu fhren muss, ist die Siedetemperatur der Essigsure deutlich hher.");

			Speak("Gibt man Essigsure in Wasser entstehen 3 Arten von Ionen. Die positiv geladenen Kathionen (Hier die Oxonium-Ionen) werden von der negativ geladenen Kathode angezogen. Hier nehmen sie ein Elektron auf und werden so wieder neutral. Die negativ geladenen Anionen (hier die Sure-Rest-Ionen Azetat und Ethanoat-Ion) wandern zur positiven Anode. Hier geben sie ein Elektron ab. Auch sie werden so neutral. Bewegte Ladungen (hier Elektronen) kennzeichnen einen Stromfluss. Die Lsung leitet also den elektrischen Strom!");

			Speak("Die Essigsure ist eine schwache Sure, da sie in Lsung nur teilweise protolysiert vorliegt, also nicht alle Molekhle zu Oxonium und Sure-Rest-Ion reagieren. Dadurch liegen relativ wenige Oxonium-Ionen in der Lsung vor.");

			Speak("Die Essigsure eignet sich wunderbar zum Reinigen, da sie mit dem Kalk zu lslichem Calziumacetat und Kohlensure reagiert. So entfernt sie den Kalk. Die Kohlensure zerfllt sofort zu C O 2 und Wasser.");

			Speak("Die Essigsure reagiert auch mit unedlen Metallen. Als Beispiel nehmen wir die Reaktion mit Magnesium.");
			Speak("Dieses reagiert mit der Essigsure zu Magnesiumacetat und Wasserstoff.");

            Speak("Hier noch eine Liste mit blichen Verwendungszwecken von Essigsure.");
		}, 5000);
	</script>
	<g id="1">
		<use id="logo_1" href="#logo" x="50%" y="50%" transform="translate(-50 -100)" />
		<text id="text1" alignment-baseline="middle" text-anchor="middle" transform="translate(0 100)">
		  <tspan x="50%" y="50%" alignment-baseline="middle" text-anchor="middle">Diese Animation wurde nur mit einem Text-Editor erstellt</tspan>
		  <tspan x="50%" y="54%" alignment-baseline="middle" text-anchor="middle"> Lukas Kurz</tspan>
		</text>
		<style type="text/css">
			#logo_1{
				opacity:0;
				animation-name: logo_1, FadeOut;
				animation-duration: 2s, 0.5s;
				animation-fill-mode: forwards;
				animation-delay: 2s, 5s;				
			}
			@keyframes logo_1 {
				0% { 
					opacity:0;
					transform: translate(-50px, -50px);
				}
				50%{
					opacity:1;
				}
				100% { 
					opacity:1;
					transform: translate(-50px, -100px);
				}
			}
			#text1{
				opacity:0;
				animation-name: text1, FadeOut;
				animation-duration: 2s, 0.5s;
				animation-fill-mode: forwards;
				animation-delay: 2s, 5s;				
			}
			@keyframes text1 {
				0% { 
					opacity:0;
					transform: translate(0px, 0px);
				}
				50%{
					opacity:1;
				}
				100% { 
					opacity:1;
					transform: translate(0px, 100px);
				}
			}			
		</style>
	</g>
	<g id="2">		
		<style>
			#logo_0{
				opacity:0;
				animation-name: FadeIn;
				animation-duration: 0.5s;
				animation-fill-mode: forwards;
				animation-delay: 5s;	
			}
			#text2{
				opacity:0;
				animation-name: FadeIn, FadeOut;
				animation-duration: 0.5s;
				animation-fill-mode: forwards;
				animation-delay: 6s, 11.5s;	
			}
		</style>
		<text id="text2" font-size="30px" alignment-baseline="middle" text-anchor="middle">
		  <tspan x="50%" y="50%" alignment-baseline="middle" text-anchor="middle">Essigsure</tspan>
		</text>
	</g>
	<g id="3">
		<style>
			#text3{
				opacity:0;
				animation-name: FadeIn, FadeOut;
				animation-duration: 0.5s;
				animation-fill-mode: forwards;
				animation-delay: 13s, 33s;	
			}
			#text4{
				opacity:0;
				animation-name: FadeIn, FadeOut;
				animation-duration: 0.5s;
				animation-fill-mode: forwards;
				animation-delay: 16.5s, 33s;	
			}
		</style>
		<text id="text3" font-size="30px" alignment-baseline="middle" text-anchor="middle">
		  <tspan x="50%" y="60px" alignment-baseline="middle" text-anchor="middle">Definition - Eisessig</tspan>
		</text>
		<text id="text4" font-size="30px" transform="translate(0 100)">
		  <tspan x="60px" y="1.5em"> - farblos</tspan>
		  <tspan x="60px" y="3em"> - stechender Geruch</tspan>
		  <tspan x="60px" y="4.5em"> - Siedetemperatur: 118 C</tspan>
		  <tspan x="60px" y="6em"> - Schmelzpunkt: 16,5 C</tspan>
		  <tspan x="60px" y="7.5em"> - Eisartiges Aussehen im gefrorenen Zustand</tspan>
		</text>
	</g>
	<g id="4">
		<style>
			#text5{
				opacity:0;
				animation-name: FadeIn, FadeOut;
				animation-duration: 0.5s;
				animation-fill-mode: forwards;
				animation-delay: 33s, 43.5s;	
			}
			#text6{
				opacity:0;
				animation-name: FadeIn, FadeOut;
				animation-duration: 0.5s;
				animation-fill-mode: forwards;
				animation-delay: 34s, 43.5s;	
			}
		</style>
		<text id="text5" font-size="30px" alignment-baseline="middle" text-anchor="middle">
		  <tspan x="50%" y="60px" alignment-baseline="middle" text-anchor="middle">Definition - Essigsure</tspan>
		</text>
		<text id="text6" font-size="30px" transform="translate(0 100)">
		  <tspan x="60px" y="1.5em"> - Reinstoff</tspan>
		  <tspan x="60px" y="3em"> - CH3-COOH</tspan>
		</text>
	</g>
	<g id="5">
		<style>
			#text7{
				opacity:0;
				animation-name: FadeIn, FadeOut;
				animation-duration: 0.5s;
				animation-fill-mode: forwards;
				animation-delay: 43.5s, 60s;
			}
			#text8{
				opacity:0;
				animation-name: FadeIn, FadeOut;
				animation-duration: 0.5s;
				animation-fill-mode: forwards;
				animation-delay: 44s, 60s;
			}
		</style>
		<text id="text7" font-size="30px" alignment-baseline="middle" text-anchor="middle">
		  <tspan x="50%" y="60px" alignment-baseline="middle" text-anchor="middle">Definition - "Essig"</tspan>
		</text>
		<text id="text8" font-size="30px" transform="translate(0 100)">
		  <tspan x="60px" y="1.5em"> - gesetzlich festgelegt</tspan>
		  <tspan x="60px" y="3em"> - Essigsure-Lsung</tspan>
		  <tspan x="60px" y="4.5em"> - Typische Konzentration: 5% - 6%</tspan>
		  <tspan x="60px" y="6em"> - Maximal 15,5% Essigsure</tspan>
		  <tspan x="60px" y="7.5em"> - Er ist zum Verzehr geeignet</tspan>
		</text>
	</g>
	<g id="6">
		<style>
			#text9{
				opacity:0;
				animation-name: FadeIn, FadeOut;
				animation-duration: 0.5s;
				animation-fill-mode: forwards;
				animation-delay: 60s, 70s;	
			}
			#text10{
				opacity:0;
				animation-name: FadeIn, FadeOut;
				animation-duration: 0.5s;
				animation-fill-mode: forwards;
				animation-delay: 60s, 70s;	
			}			
		</style>
		<text id="text9" font-size="30px" alignment-baseline="middle" text-anchor="middle">
		  <tspan x="50%" y="60px" alignment-baseline="middle" text-anchor="middle">Essigsure</tspan>
		</text>
		<text id="text10" font-size="30px" transform="translate(0 100)">
			<tspan x="60px" y="1.5em"> - Reinstoff</tspan>
			<tspan x="60px" y="3em"> - CH3-COOH</tspan>
			<tspan x="60px" y="4.5em"> - tzend</tspan>
			<tspan x="60px" y="6em"> - farblos</tspan>
			<tspan x="60px" y="7.5em"> - stechender Geruch</tspan>
			<tspan x="60px" y="9em"> - Siedetemperatur: 118 C</tspan>
			<tspan x="60px" y="10.5em"> - Schmelzpunkt: 16,5 C</tspan>
			<tspan x="60px" y="12em"> - lst sich in (un-)polaren Lsungsmitteln</tspan>
		</text>		
	</g>
	<g id="7">
		<style>
            #text11 {
                opacity: 0;
                animation-name: FadeIn, FadeOut;
                animation-duration: 0.5s;
                animation-fill-mode: forwards;
                animation-delay: 70s, 110s;
            }
			#lewis_essig_1 {
				transform: translate(400px, 150px);
				opacity: 0;
				animation-name: FadeIn, FadeOut;
				animation-duration: 0.5s;
				animation-fill-mode: forwards;
				animation-delay: 70s, 90s;
			}
			#red_overlay_1 {
				opacity: 0;
				animation-name: FadeIn, FadeOut;
				animation-duration: 0.5s;
				animation-fill-mode: forwards;
				animation-delay: 77s, 90s;
			}
            #lewis_essig_dimer_1 {
                transform: translate(300px, 350px);
                opacity: 0;
                animation-name: FadeIn, FadeOut;
                animation-duration: 0.5s;
                animation-fill-mode: forwards;
                animation-delay: 83s, 110s;
            }
			.bindu {
				fill: orange;
			}
            #lewis_propanol_1 {
                transform: translate(400px, 150px);
                opacity: 0;
                animation-name: FadeIn, FadeOut;
                animation-duration: 0.5s;
                animation-fill-mode: forwards;
                animation-delay: 90s, 110s;
            }
		</style>
		<text id="text11" font-size="30px" alignment-baseline="middle" text-anchor="middle">
			<tspan x="50%" y="60px" alignment-baseline="middle" text-anchor="middle">Essigsure - Siedetemperatur</tspan>
		</text>
		<rect id="red_overlay_1" x="470" y="140" width="120" height="120" stroke="red" stroke-width="1" fill="none"></rect>
		<use id="lewis_essig_1" href="#lewis_essig" />
		<use id="lewis_essig_dimer_1" href="#lewis_essig_dimer" />
		<use id="lewis_propanol_1" href="#lewis_propanol" />
	</g>
	<g id="8">
		<style>
            #text12 {
                opacity: 0;
                animation-name: FadeIn, FadeOut;
                animation-duration: 0.5s;
                animation-fill-mode: forwards;
                animation-delay: 110s, 150s;
            }
            #essig_aq_1 {
                transform: translate(65px, 150px);
                opacity: 0;
                animation-name: FadeIn, FadeOut;
                animation-duration: 0.5s;
                animation-fill-mode: forwards;
                animation-delay: 110s, 150s;
            }
            #text12_2 {
                opacity: 0;
                animation-name: FadeIn, FadeOut;
                animation-duration: 0.5s;
                animation-fill-mode: forwards;
                animation-delay: 115s, 150s;
            }
		</style>
		<text id="text12" font-size="30px" alignment-baseline="middle" text-anchor="middle">
			<tspan x="50%" y="60px" alignment-baseline="middle" text-anchor="middle">Essigsure - elekt. Leitfhigkeit</tspan>
		</text>
		<use id="essig_aq_1" href="#essig_aq"/>
		<text id="text12_2" font-size="30px" transform="translate(0 260)">
			<tspan x="60px" y="1.5em"> -> positives Oxonium-Ion wird von Kathode angezogen</tspan>
			<tspan x="60px" y="3em"> -> Nimmt ein Elektron auf</tspan>
			<tspan x="60px" y="4.5em"> -> negative Surerest-Ionen werden von Anode angezogen</tspan>
			<tspan x="60px" y="6em"> -> Geben ein Elektron ab</tspan>
			<tspan x="60px" y="7.5em"> => Stromfluss</tspan>
		</text>
	</g>
	<g id="9">
		<style>
            #text13 {
                opacity: 0;
                animation-name: FadeIn, FadeOut;
                animation-duration: 0.5s;
                animation-fill-mode: forwards;
                animation-delay: 150s, 166.5s;
            }
            #text14 {
                opacity: 0;
                animation-name: FadeIn, FadeOut;
                animation-duration: 0.5s;
                animation-fill-mode: forwards;
                animation-delay: 152s, 166.5s;
            }
		</style>
		<text id="text13" font-size="30px" alignment-baseline="middle" text-anchor="middle">
			<tspan x="50%" y="60px" alignment-baseline="middle" text-anchor="middle">Essigsure - Eine schwache Sure</tspan>
		</text>
		<text id="text14" font-size="30px" transform="translate(0 100)">
			<tspan x="60px" y="1.5em"> - In Lsung liegt die Essigsure nur teilweise protolysiert</tspan>
			<tspan x="60px" y="3em"> - Die umgekehrte Reaktion verluft hufiger</tspan>
		</text>
	</g>
	<g id="10">
		<style>
            #text15 {
                opacity: 0;
                animation-name: FadeIn, FadeOut;
                animation-duration: 0.5s;
                animation-fill-mode: forwards;
                animation-delay: 166.5s, 183s;
            }
            #text16 {
                opacity: 0;
                animation-name: FadeIn, FadeOut;
                animation-duration: 0.5s;
                animation-fill-mode: forwards;
                animation-delay: 166.5s, 183s;
            }
		</style>
		<text id="text15" font-size="30px" alignment-baseline="middle" text-anchor="middle">
			<tspan x="50%" y="60px" alignment-baseline="middle" text-anchor="middle">Essigsure - Reaktion mit Kalk</tspan>
		</text>
		<text id="text16" font-size="30px" transform="translate(0 100)">
			<tspan x="60px" y="1.5em">Essigsure + Kalk => Calziumacetat + Kohlensure</tspan>
			<tspan x="60px" y="3em">Calziumacetat + Kohlensure => Kohlenstoffdioxid + Wasser</tspan>
		</text>
	</g>
	<g id="11">
		<style>
            #text17 {
                opacity: 0;
                animation-name: FadeIn, FadeOut;
                animation-duration: 0.5s;
                animation-fill-mode: forwards;
                animation-delay: 183s, 195s;
            }
            #essig_magnesium_1 {
                opacity: 0;
                transform: translate(260px, 160px) scale(1.4);
                animation-name: FadeIn, FadeOut;
                animation-duration: 0.5s;
                animation-fill-mode: forwards;
                animation-delay: 186s, 195s;
            }
            #text18 {
                opacity: 0;
                animation-name: FadeIn, FadeOut;
                animation-duration: 0.5s;
                animation-fill-mode: forwards;
                animation-delay: 186s, 195s;
            }
		</style>
		<text id="text17" font-size="30px" alignment-baseline="middle" text-anchor="middle">
			<tspan x="50%" y="60px" alignment-baseline="middle" text-anchor="middle">Essigsure - Reaktion mit Magnesium</tspan>
		</text>
		<use id="essig_magnesium_1" href="#essig_magnesium"/>
		<text id="text18" font-size="30px" transform="translate(0 200)">			
			<tspan x="60px" y="3em">Magnesium + Essigsure => Magnesiumacetat + Wasserstoff</tspan>
		</text>
	</g>
	<g id="12">
		<style>
            #text19 {
                opacity: 0;
                animation-name: FadeIn;
                animation-duration: 0.5s;
                animation-fill-mode: forwards;
                animation-delay: 195s;
            }
            #text20 {
                opacity: 0;
                animation-name: FadeIn;
                animation-duration: 0.5s;
                animation-fill-mode: forwards;
                animation-delay: 195s;
            }
		</style>
		<text id="text19" font-size="30px" alignment-baseline="middle" text-anchor="middle">
			<tspan x="50%" y="60px" alignment-baseline="middle" text-anchor="middle">Essigsure - Verwendung</tspan>
		</text>
		<text id="text20" font-size="30px" transform="translate(0 100)">
			<tspan x="60px" y="1.5em"> - "Essig" als Wrzmittel (z.B. Salad)</tspan>
			<tspan x="60px" y="3em"> - Entkalken</tspan>
			<tspan x="60px" y="4.5em"> - Gegen Eisbildung im Khlschrank</tspan>
			<tspan x="60px" y="6em"> - Antibakteriell</tspan>
			<tspan x="60px" y="8em"> - Fugen und Naturstein sollten besser</tspan>
			<tspan x="65px" y="9em">nicht mit Essigsure geputzt werden</tspan>
		</text>
	</g>
</svg>